<svg width="1440" height="959" viewBox="0 0 1440 959" fill="none" xmlns="http://www.w3.org/2000/svg">
<path d="M1745 3.05176e-05H-126V959H1745V3.05176e-05Z" fill="white"/>
<path d="M1571.76 401.248C1569.43 401.248 1566.1 401.248 1563.1 401.914C1533.78 406.243 1504.46 411.571 1475.14 417.232C1457.15 420.561 1440.5 426.888 1424.84 436.545C1414.18 442.872 1411.84 451.862 1416.51 463.85C1418.84 469.843 1422.51 475.504 1426.5 480.832C1441.5 500.478 1459.15 517.46 1476.81 534.443C1489.47 546.43 1501.8 559.084 1516.46 569.073C1523.79 574.068 1531.11 575.067 1539.44 572.736C1547.11 570.405 1554.1 567.408 1561.43 564.078C1570.09 560.083 1576.76 553.756 1581.42 545.098C1592.08 526.118 1600.74 505.806 1609.07 485.494C1614.4 472.84 1618.73 459.521 1619.73 445.535C1620.4 435.213 1619.07 425.556 1611.74 418.231C1600.41 407.908 1588.08 400.249 1571.76 401.248Z" fill="#FCBF49"/>
<path d="M902.117 898.064C899.452 909.385 904.116 917.377 912.445 923.703C915.777 926.034 918.775 929.031 921.773 931.695C934.1 944.016 948.093 946.679 964.75 943.35C995.401 937.023 1025.72 929.364 1056.37 921.706C1067.03 919.042 1078.02 916.378 1088.02 911.383C1093.02 909.052 1096.68 905.722 1096.68 899.062C1096.68 881.747 1094.01 865.098 1083.02 851.113C1074.03 839.791 1065.36 828.136 1056.03 816.815C1048.71 807.491 1041.71 797.835 1032.71 790.509C1025.38 784.515 1017.72 783.849 1009.73 787.845C1004.4 790.176 999.732 793.506 995.068 797.169C968.748 817.481 943.429 839.458 918.442 861.435C907.115 871.092 899.785 882.413 902.117 898.064Z" fill="#FCBF49"/>
<path d="M1077.02 84.5785C1093.68 84.2455 1107.34 84.5785 1121 83.2465C1138.32 81.9146 1144.99 77.2528 1148.32 59.6045C1151.32 43.9542 1152.98 28.3038 1155.65 12.6535C1157.31 2.3309 1157.31 -7.65868 1154.65 -17.6483C1152.98 -23.642 1149.98 -26.9719 1144.32 -28.3038C1136.66 -29.9687 1128.66 -30.6347 1121 -30.6347C1077.02 -30.9677 1032.71 -30.9677 988.738 -30.6347C980.076 -30.6347 971.747 -29.6358 963.085 -27.9708C958.42 -26.9719 953.09 -25.9729 951.091 -20.6451C945.427 -3.32986 944.095 11.9875 958.087 23.975C976.411 39.6253 994.734 54.9427 1013.39 69.5941C1026.72 79.9167 1041.38 84.9115 1057.7 84.5785C1065.36 84.5785 1072.36 84.5785 1077.02 84.5785Z" fill="#FCBF49"/>
<path d="M209.821 51.6129C211.486 78.2518 213.152 109.885 217.15 141.852C219.815 164.162 225.146 169.49 246.134 174.485C257.129 177.149 268.456 179.813 279.783 181.81C285.114 182.809 290.444 184.474 296.108 182.476C307.768 178.481 315.098 170.822 316.763 157.502C320.095 134.526 323.093 111.883 325.425 88.9073C327.091 72.924 326.758 57.2736 317.097 43.2882C302.438 21.6441 286.113 1.33197 269.122 -17.9812C264.791 -22.643 259.794 -26.3059 253.131 -26.6389C246.801 -27.3048 240.138 -27.9708 233.808 -26.9719C224.479 -25.6399 221.148 -24.308 219.149 -14.9844C214.818 4.99481 209.487 24.974 209.821 51.6129Z" fill="#FCBF49"/>
<path d="M951.091 672.299C940.43 672.632 930.435 675.962 920.441 679.625C902.45 685.951 884.127 690.613 867.136 699.604C857.474 704.932 853.477 713.589 855.142 725.244C856.475 734.567 858.807 743.225 861.472 752.216C869.801 778.855 877.464 806.159 888.458 831.799C897.453 852.111 905.449 854.442 923.106 842.122C932.767 835.462 942.096 827.803 951.091 820.145C968.082 805.826 985.739 792.174 1001.4 776.191C1008.39 769.198 1014.06 761.206 1014.06 750.551C1014.06 736.565 1013.39 722.913 1010.39 709.26C1009.39 703.933 1006.39 699.271 1001.73 696.274C989.404 687.616 976.411 680.624 962.751 674.963C959.087 672.299 955.089 672.299 951.091 672.299Z" fill="#FCBF49"/>
<path d="M1035.71 323.995C1037.05 343.975 1036.71 364.62 1037.05 384.932C1037.38 404.578 1043.04 409.573 1061.37 406.243C1075.02 403.579 1088.68 401.248 1102.34 398.251C1116 395.255 1130 392.591 1143.32 387.929C1149.32 385.931 1154.32 382.601 1155.65 375.608C1158.31 362.622 1159.98 349.302 1157.65 336.316C1153.32 313.34 1146.32 291.363 1140.32 269.053C1136.66 256.066 1133.33 242.747 1127.66 230.426C1123.67 222.102 1118.34 217.107 1108.67 218.106C1100.68 218.772 1092.68 220.437 1085.02 222.102C1072.03 224.766 1058.7 226.098 1046.71 233.09C1041.04 236.42 1038.04 240.749 1037.05 247.076C1036.38 252.07 1035.71 257.398 1035.71 262.726C1035.71 282.705 1035.71 303.017 1035.71 323.995Z" fill="#FCBF49"/>
<path d="M1419.51 175.817C1419.17 173.486 1419.17 171.488 1418.51 169.157C1414.18 145.182 1407.85 121.54 1402.52 97.565C1399.52 84.5785 1396.52 71.2591 1391.19 58.9386C1385.86 46.9511 1380.53 44.2872 1368.87 48.949C1353.88 54.6098 1339.88 62.2684 1326.22 70.5931C1317.89 75.5879 1311.9 83.2466 1307.23 91.9042C1298.24 108.554 1291.58 126.202 1284.25 143.85C1279.58 155.172 1274.25 166.493 1270.92 178.481C1268.92 185.806 1270.25 191.467 1275.58 197.128C1288.91 211.779 1306.23 219.771 1322.23 229.427C1331.55 235.088 1341.22 234.755 1350.54 229.427C1363.2 222.435 1375.53 215.775 1388.19 209.115C1397.19 204.121 1405.18 197.794 1412.84 190.801C1417.18 186.805 1419.51 182.143 1419.51 175.817Z" fill="#FCBF49"/>
<path d="M664.911 825.14C662.579 825.14 659.913 825.14 656.915 825.473C642.256 827.47 638.591 831.133 634.927 846.451C631.928 858.438 630.596 870.426 627.93 882.413C624.266 900.727 629.596 915.046 642.256 927.366C652.584 937.356 662.912 947.012 673.573 956.669C682.568 964.661 691.563 972.985 701.891 978.979C712.885 985.306 723.879 985.306 735.206 978.979C748.866 971.32 761.859 962.33 774.186 952.673C787.179 942.018 789.844 935.358 784.18 918.709C776.518 895.067 766.523 872.424 755.529 850.446C749.532 838.126 739.204 831.799 726.878 830.134C706.555 827.138 685.899 826.472 664.911 825.14Z" fill="#FCBF49"/>
<path d="M1382.53 804.827C1382.86 789.51 1381.19 781.518 1375.86 772.195C1365.87 754.879 1354.54 738.896 1343.21 722.58C1336.88 713.256 1328.56 708.261 1317.89 707.262C1315.23 706.929 1312.56 706.596 1309.9 705.93C1298.57 704.266 1285.25 711.591 1283.25 721.581C1277.58 747.554 1271.59 773.527 1271.92 800.832C1272.25 823.475 1273.92 846.118 1275.58 868.761C1276.58 883.745 1283.25 894.734 1297.24 900.394C1311.23 906.055 1324.89 912.049 1339.22 916.711C1352.88 921.04 1359.21 917.71 1363.87 903.724C1367.54 893.069 1369.53 881.747 1371.53 870.426C1375.86 847.783 1381.53 825.14 1382.53 804.827Z" fill="#FCBF49"/>
<path d="M1304.24 562.414C1311.9 562.747 1317.56 559.084 1322.89 554.089C1333.89 544.432 1342.88 532.445 1352.88 521.789C1362.2 511.467 1371.87 501.144 1378.86 489.157C1389.19 471.841 1388.86 456.857 1377.53 441.54C1368.87 430.218 1357.87 421.893 1345.88 415.234C1341.22 412.57 1335.89 410.905 1330.55 411.571C1321.89 412.57 1313.56 413.902 1305.24 415.9C1283.58 421.56 1261.59 425.556 1240.6 433.881C1229.94 437.877 1224.28 445.535 1221.95 457.19C1219.61 470.509 1218.28 483.829 1216.95 497.148C1215.62 509.802 1218.95 519.791 1229.61 526.451C1250.6 539.771 1272.25 550.759 1294.57 560.416C1297.57 561.415 1300.9 562.414 1304.24 562.414Z" fill="#FCBF49"/>
<path d="M625.598 817.814C625.265 798.501 622.933 783.183 620.601 767.866C618.602 753.215 616.936 738.23 612.938 723.912C611.273 718.251 608.607 713.589 602.611 712.59C594.948 711.258 587.952 711.924 581.622 717.252C556.968 738.896 533.314 761.539 510.993 785.847C499.666 797.835 497 812.153 502.664 828.137C511.659 852.445 521.654 876.087 532.648 899.063C533.981 902.059 535.979 904.39 537.645 907.054C542.643 915.046 549.972 917.71 558.634 916.045C570.961 913.714 582.954 910.384 594.948 907.054C604.943 904.057 611.939 897.731 614.271 887.075C619.602 863.433 623.933 838.792 625.598 817.814Z" fill="#FCBF49"/>
<path d="M730.875 681.29C727.211 681.623 723.546 681.29 719.881 682.288C694.561 688.282 669.575 695.608 645.254 704.932C632.261 709.926 628.264 716.919 628.93 731.237C629.929 750.218 632.595 768.865 636.592 787.179C639.591 802.497 646.254 808.823 660.913 811.154C682.235 814.151 703.557 815.483 724.879 816.149C740.537 816.482 752.864 809.822 761.526 795.504C775.185 773.86 787.845 751.55 799.505 728.574C800.838 725.91 802.171 722.913 803.17 719.916C807.168 708.594 805.169 703.267 794.508 698.605C780.182 692.278 764.857 687.949 749.865 683.953C743.535 682.288 737.205 681.623 730.875 681.29Z" fill="#FCBF49"/>
<path d="M1514.46 -30.6347C1491.47 -30.6347 1468.15 -30.6347 1445.16 -30.6347C1437.5 -30.6347 1429.84 -29.9687 1422.51 -28.3038C1411.84 -25.9729 1406.85 -20.9781 1405.51 -9.98958C1404.52 -2.99687 1404.18 4.32882 1403.85 11.6545C1403.85 19.9792 1407.18 25.307 1413.84 29.3028C1416.51 30.9677 1419.51 32.6326 1422.51 33.6316C1451.82 45.6191 1481.81 54.9427 1511.79 64.2663C1521.12 67.2632 1530.78 69.5941 1540.44 68.5951C1560.1 66.2642 1579.42 60.6035 1598.08 53.9438C1601.41 52.6118 1605.07 50.9469 1607.07 47.617C1618.73 29.6358 1630.06 11.3215 1628.4 -11.9875C1627.73 -21.6441 1625.73 -24.974 1616.74 -26.9719C1605.74 -29.6358 1594.41 -30.3017 1583.09 -30.6347C1560.1 -30.9677 1537.11 -30.6347 1514.46 -30.6347Z" fill="#FCBF49"/>
<path d="M-10.0619 678.293C-18.0577 678.959 -25.7202 679.958 -32.3833 684.287C-39.7128 688.948 -46.3759 694.609 -53.3721 700.27C-59.0358 704.932 -60.7015 710.925 -59.0358 717.918C-55.0379 734.234 -49.0411 749.885 -43.0443 765.535C-39.0464 775.525 -32.7165 783.516 -23.3881 788.178C-4.39829 798.168 15.2579 805.493 35.2472 812.153C43.9092 815.15 52.2381 813.818 59.5675 808.157C62.5659 805.826 65.2312 803.495 67.8964 800.832C80.8895 786.846 92.5499 771.529 103.877 756.212C109.874 748.22 115.538 739.895 118.869 729.906C121.534 722.247 120.202 715.587 114.871 710.259C102.878 698.605 89.5515 688.615 72.5606 686.617C64.5649 685.618 56.5692 684.62 48.5734 683.621C28.9173 681.623 9.26108 679.958 -10.0619 678.293Z" fill="#FCBF49"/>
<path d="M1340.88 306.347C1340.88 308.345 1340.88 310.343 1340.88 312.341C1340.88 335.317 1341.55 358.626 1343.21 381.602C1343.55 387.929 1345.21 393.59 1349.88 397.918C1361.21 407.908 1372.87 417.232 1385.53 425.223C1390.86 428.886 1396.52 430.884 1402.85 428.553C1415.51 424.224 1427.84 418.564 1438.83 410.572C1443.49 407.242 1445.83 402.247 1446.83 396.254C1449.16 379.604 1447.83 362.955 1448.16 346.306C1448.49 331.654 1445.83 317.669 1440.16 304.016C1431.17 283.038 1421.84 262.393 1411.51 242.081C1409.85 238.751 1408.18 235.754 1406.18 232.757C1400.52 224.433 1394.85 222.768 1385.86 226.764C1374.86 231.758 1364.54 237.419 1354.21 243.746C1347.21 248.075 1343.21 254.401 1341.88 263.059C1339.55 277.71 1341.22 292.029 1340.88 306.347Z" fill="#FCBF49"/>
<path d="M251.132 679.625C245.468 679.958 239.471 678.626 233.475 680.291C208.821 687.616 185.167 697.939 162.846 711.258C150.852 718.251 146.854 728.907 150.186 743.225C157.515 773.527 169.176 802.164 183.168 829.801C187.832 839.458 194.829 841.789 204.49 837.46C233.475 824.141 261.126 808.823 278.784 778.854C287.779 763.537 299.439 749.885 307.768 733.901C313.432 723.246 312.765 717.585 304.437 709.26C299.106 703.6 292.776 698.605 287.446 692.944C277.451 682.289 265.791 677.294 251.132 679.625Z" fill="#FCBF49"/>
<path d="M1263.92 865.098C1262.59 848.782 1262.26 832.798 1260.59 816.815C1258.93 800.166 1251.6 794.838 1235.94 796.17C1211.95 798.168 1188.3 802.496 1164.64 806.825C1150.65 809.156 1136.99 813.152 1128.66 827.47C1123 837.127 1117.34 846.784 1112.34 857.106C1109.34 863.1 1108.34 869.76 1109.01 876.419C1110.01 885.077 1111.01 894.068 1112.34 902.725C1113.34 909.052 1116.34 914.38 1121.33 918.376C1127.33 923.037 1133.33 927.699 1138.99 932.694C1148.65 940.686 1158.98 942.351 1170.31 938.022C1196.29 928.365 1221.95 918.043 1246.27 904.723C1254.93 900.061 1260.93 893.402 1262.59 882.746C1263.26 876.419 1263.26 870.426 1263.92 865.098Z" fill="#FCBF49"/>
<path d="M1464.15 793.173C1454.82 793.173 1445.49 792.84 1436.17 793.173C1406.51 793.839 1398.19 800.832 1390.86 830.8C1383.86 859.104 1378.86 888.074 1374.53 917.044C1373.2 927.033 1375.53 935.691 1382.86 942.684C1386.52 946.014 1390.19 949.343 1393.52 952.673C1400.18 959 1407.51 959.333 1415.18 955.67C1426.17 950.342 1436.5 944.016 1447.16 938.355C1463.82 929.364 1476.14 916.711 1485.14 899.395C1496.13 877.751 1507.13 856.107 1517.12 833.797C1519.12 829.135 1520.79 824.141 1521.79 818.813C1524.12 805.16 1520.12 798.501 1507.13 795.171C1493.13 791.841 1478.81 793.173 1464.15 793.173Z" fill="#FCBF49"/>
<path d="M-22.7219 597.044C-22.7219 606.701 -22.7219 613.027 -22.7219 619.354C-22.3887 625.681 -22.0556 632.341 -21.7224 638.667C-20.7229 655.317 -14.393 662.975 1.26532 665.972C21.5878 669.302 42.2434 671.633 62.5659 671.966C79.2236 672.299 86.5531 666.305 90.8841 648.99C96.2146 628.678 100.212 608.366 104.21 587.72C106.876 574.401 106.542 561.748 98.2135 550.426C90.8841 540.436 83.2215 530.447 75.5589 521.123C68.2295 512.466 59.5675 509.802 49.2397 512.799C30.2498 518.126 11.5931 525.119 -6.39725 533.777C-15.0593 537.773 -19.3903 545.098 -21.0561 554.755C-22.7219 569.739 -22.7219 585.057 -22.7219 597.044Z" fill="#FCBF49"/>
<path d="M464.018 794.505C474.346 795.837 487.006 790.509 498.999 780.519C512.992 768.532 525.985 755.546 539.311 742.892C547.64 734.567 556.302 726.909 563.298 716.919C569.961 707.596 568.962 700.603 559.634 694.609C538.978 681.623 517.323 670.301 495.335 659.978C489.338 657.315 483.008 656.316 476.345 658.314C463.352 662.309 450.692 666.971 440.031 676.628C427.371 687.949 414.045 698.938 401.052 710.259C395.388 715.254 389.724 720.249 384.727 726.243C379.73 732.236 378.064 738.896 380.396 746.888C383.394 756.211 386.726 765.535 390.724 774.526C394.389 782.85 400.385 787.845 408.714 789.51C425.372 792.84 442.03 793.506 464.018 794.505Z" fill="#FCBF49"/>
<path d="M610.273 643.662C610.939 626.014 611.273 608.699 610.606 591.05C609.94 569.406 601.278 554.089 583.621 543.1C566.63 532.778 549.306 522.788 531.982 513.132C526.651 510.135 521.321 507.471 515.99 505.473C503.663 500.811 498.666 504.141 496.334 517.46C496.001 519.125 495.668 521.123 495.668 522.788C493.336 553.423 494.335 584.058 494.668 614.359C494.668 633.673 502.664 648.657 519.322 657.981C539.977 669.635 560.633 680.624 581.622 691.279C586.952 693.943 592.283 695.275 598.28 695.608C607.275 696.274 610.273 693.61 610.606 684.286C610.273 671.3 610.273 657.648 610.273 643.662Z" fill="#FCBF49"/>
<path d="M888.791 883.745C888.791 877.418 888.791 870.759 887.125 864.765C877.131 829.801 866.136 795.171 853.143 760.873C849.479 750.884 845.148 741.227 838.151 733.235C831.155 725.244 823.493 724.578 815.497 731.57C811.832 734.567 808.834 738.23 806.168 742.226C792.509 762.871 780.182 784.515 769.854 807.158C764.524 818.48 763.525 830.134 767.189 841.789C774.852 867.429 785.846 892.07 797.839 915.712C803.503 926.7 811.166 929.697 822.826 927.366C837.152 924.702 851.144 920.707 865.137 916.378C886.792 909.718 888.458 907.72 888.791 883.745Z" fill="#FCBF49"/>
<path d="M-7.72986 66.2642C-7.72986 86.2434 -8.06302 106.556 -7.72986 126.535C-7.39671 137.19 -7.06355 148.179 -4.39831 158.834C-2.73253 165.827 0.265865 171.821 6.59582 175.151C20.2552 182.476 34.2477 190.135 49.2397 192.466C69.229 195.463 69.5622 194.797 74.5595 176.816C80.5563 155.837 85.5536 134.193 90.2178 112.549C93.5494 97.2319 92.5499 82.5806 85.2205 68.9281C70.5616 39.9583 52.9044 12.6535 35.2472 -13.9854C28.5841 -23.975 19.5889 -28.6368 7.59528 -26.9719C1.26533 -25.9729 -2.73253 -23.309 -4.73146 -16.9823C-7.06354 -9.32361 -7.72986 -1.66494 -7.72986 6.32673C-8.06302 25.9729 -7.72986 45.9521 -7.72986 66.2642Z" fill="#FCBF49"/>
<path d="M909.113 90.5722C909.447 67.5962 904.116 60.9365 888.458 62.2684C865.137 64.2663 842.149 68.2622 819.495 73.2569C806.168 76.2538 796.507 84.2455 790.177 97.2319C780.516 118.21 772.52 139.521 765.524 161.498C761.193 174.818 764.191 182.143 775.518 189.802C789.844 199.126 804.836 206.784 820.161 214.776C831.821 220.77 842.482 219.105 852.477 211.113C862.139 203.455 871.8 195.463 881.795 187.804C894.788 177.815 903.117 164.828 904.449 147.846C906.448 127.534 907.781 107.222 909.113 90.5722Z" fill="#FCBF49"/>
<path d="M917.109 142.518C913.444 160.832 923.772 174.485 942.429 184.474C958.087 192.799 973.412 201.79 989.404 209.115C1000.4 214.443 1011.73 219.438 1024.05 221.436C1037.71 223.767 1045.71 216.441 1045.37 202.123C1045.37 199.792 1045.37 197.794 1045.04 195.463C1041.38 173.819 1037.38 152.508 1034.05 130.864C1030.05 107.555 1021.05 87.5754 1002.06 72.924C986.739 60.9365 972.08 47.95 956.755 36.2955C953.09 33.6316 949.425 31.3007 945.427 29.3028C941.429 26.9719 937.765 27.9708 935.433 31.9667C929.769 41.6233 924.772 51.6129 923.439 62.9344C920.441 87.9083 918.442 112.882 917.109 142.518Z" fill="#FCBF49"/>
<path d="M844.481 625.015C843.149 636.336 844.148 650.655 844.814 664.64C845.814 680.291 851.811 686.284 864.804 683.287C887.458 677.96 909.113 669.968 930.435 660.311C941.096 655.317 948.093 646.659 951.091 634.671C954.423 621.019 955.755 607.034 957.088 593.048C959.087 574.401 961.086 555.421 962.418 536.774C963.418 525.452 964.75 514.464 962.751 503.142C960.086 488.158 957.754 486.493 945.427 493.818C917.442 510.468 889.457 527.117 863.804 547.096C854.809 554.089 848.812 564.078 846.813 576.066C844.481 591.383 845.148 606.701 844.481 625.015Z" fill="#FCBF49"/>
<path d="M464.684 67.5962C465.351 88.5743 467.35 109.552 469.682 130.531C471.014 144.516 477.344 155.172 490.67 160.166C498.666 163.163 506.662 167.159 514.658 169.823C529.65 175.151 534.98 173.486 543.309 159.167C556.302 136.524 567.296 112.549 577.291 88.2413C583.288 73.5899 581.289 59.9375 572.96 46.951C567.629 38.2934 561.966 29.6358 555.969 21.3111C545.641 6.65973 536.646 -8.99062 524.319 -21.9771C513.991 -32.6326 497.667 -29.9687 491.337 -16.3163C483.674 9.53674e-06 477.344 16.6493 470.681 33.2986C466.017 43.9542 464.018 55.2757 464.684 67.5962Z" fill="#FCBF49"/>
<path d="M429.37 302.018C428.037 317.336 434.367 328.99 444.362 338.98C447.693 342.31 450.692 345.307 454.023 348.636C464.018 358.293 469.015 358.293 479.01 348.303C479.676 347.305 480.676 346.639 481.342 345.64C502.997 322.331 521.987 296.358 541.643 271.384C550.638 260.062 558.967 248.075 563.298 233.423C564.964 228.096 564.964 223.434 561.299 219.438C551.971 209.115 542.643 198.793 530.982 192.133C514.658 182.809 497 176.483 479.343 170.822C462.685 165.494 444.362 177.815 440.364 195.463C437.366 209.115 436.699 223.434 435.367 237.419C433.035 259.063 431.369 280.374 429.37 302.018Z" fill="#FCBF49"/>
<path d="M829.489 255.067C833.487 238.751 823.826 229.094 809.833 221.769C800.172 216.774 790.843 211.779 781.515 205.785C759.527 191.8 735.873 185.14 710.22 185.806C700.891 186.139 692.563 188.137 685.233 194.797C679.236 200.125 672.906 205.785 666.91 211.113C659.247 217.773 656.915 226.098 659.58 236.087C663.578 251.072 668.242 265.723 674.239 280.041C677.904 288.033 683.567 293.694 691.896 296.358C698.226 298.356 704.556 300.021 710.886 300.686C729.876 303.35 748.866 305.681 767.523 307.679C781.848 309.344 796.174 311.675 810.833 310.676C818.495 310.01 821.827 307.013 824.159 299.688C827.824 285.369 830.156 271.384 829.489 255.067Z" fill="#FCBF49"/>
<path d="M1159.65 88.5743C1160.65 106.556 1164.31 123.205 1166.98 140.187C1169.31 154.839 1177.3 162.83 1190.3 166.493C1205.29 170.822 1220.61 174.485 1235.94 177.815C1247.93 180.479 1257.26 176.483 1262.92 165.494C1275.25 142.518 1285.58 118.543 1293.24 93.2361C1296.24 83.5795 1294.24 74.5889 1286.25 67.5962C1281.58 63.6004 1276.92 59.9375 1271.59 56.9406C1247.93 43.2882 1223.95 30.6347 1199.62 18.9802C1194.63 16.6493 1189.63 14.6514 1184.63 13.3195C1176.3 11.3215 1171.31 14.3184 1168.97 22.9761C1163.64 44.9531 1161.65 66.9302 1159.65 88.5743Z" fill="#FCBF49"/>
<path d="M301.105 261.061C299.772 245.744 296.441 231.092 293.442 216.108C290.777 203.788 283.448 196.795 272.121 193.798C261.793 191.467 251.798 188.803 241.47 186.805C232.475 184.807 222.814 181.81 213.818 185.473C191.497 194.797 171.508 208.116 152.851 224.433C149.519 227.43 147.854 232.091 148.52 236.42C150.852 251.072 152.185 266.056 158.848 279.375C166.177 293.694 175.839 306.68 185.167 319.334C191.83 328.324 200.492 330.322 210.154 325.993C237.806 313.673 264.791 300.021 290.111 282.705C297.44 278.043 301.771 270.718 301.105 261.061Z" fill="#FCBF49"/>
<path d="M825.158 -31.9667C798.173 -32.6326 771.187 -31.6337 744.535 -30.9677C738.871 -30.9677 733.207 -29.9687 727.544 -28.3038C723.879 -27.3048 720.881 -24.9739 720.548 -20.6451C719.548 -9.65658 721.214 0.333 729.876 8.32467C746.2 22.9761 762.858 37.6274 780.182 51.2799C790.843 59.6045 803.17 63.6004 816.829 61.9354C828.157 60.6035 839.484 59.6045 850.811 57.6066C867.802 54.6097 884.793 52.9448 901.451 48.283C907.448 46.6181 912.445 43.6212 915.777 37.9604C925.771 21.6441 930.769 3.32988 932.101 -15.9833C932.434 -22.3101 929.769 -25.9729 924.105 -27.6378C918.109 -29.6357 911.779 -30.3017 905.449 -30.6347C878.796 -31.6337 852.144 -32.6326 825.158 -31.9667Z" fill="#FCBF49"/>
<path d="M620.268 622.018C620.601 638.334 619.935 654.984 621.267 671.3C622.6 687.283 628.93 693.943 643.922 690.946C666.576 686.617 688.565 679.958 709.553 670.967C720.548 666.305 725.545 656.982 726.877 644.661C728.876 624.016 727.211 603.371 727.877 582.726C728.21 575.733 727.544 569.073 726.544 562.414C725.212 553.09 721.88 545.431 713.551 540.769C700.891 533.444 687.232 527.783 673.573 522.455C664.911 519.125 657.248 521.123 650.918 527.45C644.255 533.777 637.925 540.436 631.595 547.096C626.265 552.757 623.266 559.417 621.934 567.075C619.268 585.39 620.934 603.704 620.268 622.018Z" fill="#FCBF49"/>
<path d="M62.5658 852.444C61.8995 861.102 63.2322 869.094 63.5653 877.418C64.5648 891.737 65.5642 905.722 68.2295 920.041C70.5616 933.027 76.2252 937.356 88.552 934.359C107.875 930.03 126.198 922.371 144.522 915.712C152.185 913.048 159.514 909.718 166.51 905.722C170.841 903.058 174.839 899.728 175.839 894.734C179.17 878.417 181.169 861.768 175.839 845.452C166.51 816.815 155.516 789.177 143.189 761.872C135.86 745.556 129.197 744.557 117.203 757.876C102.878 773.86 89.5514 790.842 76.5584 807.824C66.5637 820.811 60.9001 835.462 62.5658 852.444Z" fill="#FCBF49"/>
<path d="M36.9129 226.431C36.9129 209.115 34.914 205.452 23.9199 200.125C16.2573 196.129 8.26155 193.132 -0.067337 190.135C-7.39675 187.471 -15.0593 187.138 -22.7219 189.136C-39.0465 193.132 -54.0385 200.458 -70.03 205.452C-88.0203 211.113 -98.3482 222.768 -100.347 242.414C-100.347 242.747 -100.68 243.08 -100.68 243.413C-103.012 252.736 -101.347 261.061 -95.0166 268.72C-74.0278 293.694 -50.3738 316.004 -26.3866 337.648C-21.3893 342.31 -16.0588 346.639 -9.72884 349.302C-1.39995 352.632 4.26369 350.967 8.92786 342.976C11.5931 338.98 13.2589 334.651 14.5915 329.989C20.5883 310.343 24.9193 290.364 28.9172 270.385C32.5819 254.068 36.5798 238.418 36.9129 226.431Z" fill="#FCBF49"/>
<path d="M422.707 804.161C399.053 803.829 394.722 807.491 391.057 828.136C388.725 841.123 387.392 854.109 385.393 866.763C382.395 886.076 388.725 900.061 404.383 910.717C420.375 921.373 436.033 932.361 452.358 942.684C458.021 946.347 464.018 949.676 470.015 952.673C478.344 957.002 486.673 957.002 494.668 952.007C502.997 946.679 511.326 941.352 518.655 934.692C525.652 928.698 527.318 921.373 524.652 913.048C514.658 882.746 502.331 853.11 487.339 825.14C482.008 814.817 473.346 809.489 462.352 807.824C448.36 805.493 433.701 804.827 422.707 804.161Z" fill="#FCBF49"/>
<path d="M833.82 342.976C833.82 349.302 833.82 355.962 833.82 362.289C833.487 375.608 838.818 385.598 850.145 392.591C863.804 401.248 878.13 408.574 892.123 415.9C910.446 425.556 928.77 435.546 948.093 443.538C959.087 448.199 968.415 446.867 977.743 438.543C990.403 427.554 992.069 423.891 984.74 408.241C972.08 381.269 958.42 354.63 942.429 329.656C937.432 321.998 931.102 316.004 922.773 312.674C900.118 303.35 876.464 297.024 852.144 292.362C842.816 290.697 840.15 293.028 837.485 302.684C833.487 316.004 832.821 329.323 833.82 342.976Z" fill="#FCBF49"/>
<path d="M1186.63 634.672C1186.63 636.003 1186.63 637.002 1186.63 638.334C1186.3 659.978 1189.96 666.305 1209.29 674.63C1229.28 683.287 1249.6 690.613 1270.59 696.607C1285.58 700.936 1295.24 693.943 1297.24 677.96C1300.24 654.318 1302.24 630.343 1303.9 606.701C1304.9 594.047 1302.57 581.727 1291.24 574.068C1267.92 558.418 1242.94 546.097 1217.62 534.776C1216.28 534.11 1214.95 534.11 1213.62 533.777C1210.29 532.778 1206.95 533.777 1204.62 536.108C1197.63 542.767 1192.63 550.759 1191.3 560.749C1188.63 585.39 1187.63 610.031 1186.63 634.672Z" fill="#FCBF49"/>
<path d="M1092.35 675.296C1072.69 677.294 1051.7 686.617 1031.05 697.939C1027.05 700.27 1025.05 704.599 1025.05 709.593C1025.05 716.919 1024.72 724.245 1025.38 731.237C1026.05 746.222 1027.72 761.539 1036.71 774.193C1053.7 797.835 1071.03 820.811 1091.02 841.789C1097.68 848.782 1102.34 848.116 1107.67 839.791C1120.33 820.811 1130.66 800.499 1134.66 777.19C1136.33 767.533 1138.66 757.876 1140.32 748.22C1143.32 731.903 1147.65 715.587 1148.32 698.938C1148.65 687.283 1145.99 683.287 1134.99 680.624C1122.33 678.293 1109.34 676.295 1092.35 675.296Z" fill="#FCBF49"/>
<path d="M1262.92 995.628C1304.9 995.295 1338.55 996.294 1372.2 994.297C1376.86 993.964 1381.19 992.965 1385.86 991.966C1388.52 991.3 1390.86 989.968 1391.19 987.304C1392.19 980.311 1393.85 972.985 1388.52 967.325C1377.53 955.337 1366.2 943.35 1351.54 936.357C1332.22 927.366 1312.23 919.708 1292.24 912.715C1280.58 908.719 1268.59 908.719 1256.93 912.715C1231.94 921.373 1207.95 932.361 1184.3 943.683C1165.64 952.34 1161.65 956.003 1164.64 979.312C1164.64 979.645 1164.64 979.645 1164.64 979.978C1164.64 986.305 1167.98 989.968 1173.64 991.966C1180.3 994.296 1187.3 994.629 1193.96 994.962C1219.28 994.962 1245.27 995.961 1262.92 995.628Z" fill="#FCBF49"/>
<path d="M787.179 487.825C786.846 498.147 790.177 504.807 796.174 510.135C806.502 519.458 817.496 528.449 829.156 536.441C837.152 541.768 845.481 542.767 854.143 538.772C861.806 535.442 869.468 531.446 876.464 526.784C894.455 515.13 912.778 504.807 929.103 490.489C946.76 474.838 946.76 460.853 927.77 447.533C900.118 427.887 869.801 413.569 838.818 400.582C834.487 398.584 829.489 397.918 824.825 400.249C812.832 407.242 801.171 414.901 798.173 430.551C797.506 434.214 796.507 437.544 795.841 441.207C792.509 457.19 788.178 473.173 787.179 487.825Z" fill="#FCBF49"/>
<path d="M287.446 664.307C287.446 669.635 288.778 674.963 291.777 678.293C308.768 696.274 325.759 714.255 350.412 721.581C360.074 724.245 368.069 723.246 375.732 717.252C392.39 703.933 408.714 690.613 423.706 675.629C435.367 664.307 435.7 656.982 426.038 643.995C414.711 628.678 402.051 614.692 390.057 600.374C380.729 589.385 369.402 582.393 355.409 579.729C348.08 578.397 340.75 576.732 333.421 575.4C322.094 573.402 317.43 576.066 312.432 587.054C303.104 608.033 296.441 630.01 289.778 651.987C288.778 655.983 288.112 660.644 287.446 664.307Z" fill="#FCBF49"/>
<path d="M206.822 146.181C205.823 131.197 205.156 116.212 203.824 101.228C202.824 89.5733 201.825 77.9188 199.826 66.5973C197.161 50.9469 191.164 47.95 177.171 53.6108C176.838 53.6108 176.838 53.6108 176.505 53.9438C158.848 61.6025 141.857 70.5931 124.866 79.9167C114.205 85.9104 105.876 94.2351 101.878 106.556C93.8825 130.531 88.2189 155.172 83.5547 179.813C81.2226 192.466 84.8873 198.127 96.2146 202.456C104.543 205.785 113.206 208.116 121.868 211.113C133.195 215.109 144.189 213.444 154.184 207.117C167.51 199.126 180.503 190.801 192.83 181.477C199.493 176.483 203.491 169.823 205.156 161.165C206.489 156.171 206.489 151.176 206.822 146.181Z" fill="#FCBF49"/>
<path d="M1209.29 447.533C1209.95 442.206 1207.62 433.215 1199.62 426.888C1189.3 418.897 1178.97 411.238 1167.31 405.244C1161.65 402.247 1155.65 400.249 1148.99 400.915C1127 403.579 1105.34 408.574 1084.02 414.235C1070.03 417.898 1066.36 425.223 1072.03 439.209C1083.35 466.181 1096.35 492.154 1111.34 516.794C1117.34 526.451 1125.33 532.445 1136.33 534.11C1146.99 535.775 1157.31 538.439 1167.98 539.438C1174.31 540.104 1181.3 541.768 1186.63 536.774C1193.29 530.114 1199.62 522.455 1201.29 512.133C1204.96 492.487 1207.95 472.507 1209.29 447.533Z" fill="#FCBF49"/>
<path d="M603.943 214.776C611.939 214.776 617.936 215.109 623.933 214.776C633.927 214.11 643.922 213.777 652.251 207.117C660.58 200.791 668.575 194.131 675.905 186.139C681.235 180.479 684.234 173.819 683.567 165.494C681.902 144.516 677.237 124.204 672.573 103.892C669.908 91.9042 662.245 86.2435 651.251 83.5796C639.591 80.9157 627.597 78.9178 615.937 76.9199C603.943 74.9219 594.615 78.5848 588.285 89.9063C573.959 114.88 561.966 141.186 550.638 167.825C549.306 171.155 548.639 174.818 547.973 178.148C547.307 181.478 546.974 184.807 548.973 187.471C557.302 198.46 565.964 208.782 579.29 213.111C587.952 216.441 596.947 214.11 603.943 214.776Z" fill="#FCBF49"/>
<path d="M1269.92 -31.9667C1245.27 -32.6326 1217.95 -31.6337 1190.96 -30.6347C1186.3 -30.6347 1181.63 -29.3028 1176.97 -28.6368C1171.97 -27.6379 1170.97 -24.308 1171.31 -19.3132C1172.64 -8.99064 1178.64 -2.6639 1186.97 2.33089C1212.95 17.6483 1240.27 31.6337 1266.92 45.2861C1276.25 50.2809 1285.91 54.9427 1295.91 58.2726C1304.9 61.2694 1313.9 61.6024 1322.89 57.9396C1338.88 51.6128 1354.54 43.9542 1369.53 34.9635C1379.53 28.9698 1384.53 19.9792 1385.53 7.99165C1386.19 1.99791 1386.53 -3.99584 1387.19 -9.98959C1388.19 -20.3122 1384.53 -26.3059 1374.86 -28.3038C1367.54 -29.6358 1360.21 -30.6347 1352.88 -30.9677C1326.22 -32.2997 1299.24 -32.2997 1269.92 -31.9667Z" fill="#FCBF49"/>
<path d="M-20.7229 523.454C-18.0577 523.121 -15.3925 522.788 -12.7272 522.122C8.92788 515.796 30.2498 507.804 50.9054 498.813C57.5685 495.816 62.899 490.822 66.2306 483.829C71.2279 473.173 75.8921 462.185 79.2236 450.863C81.2225 444.203 80.8894 437.877 77.2247 431.883C71.8942 423.225 66.5637 414.235 60.5669 405.91C57.9017 402.247 54.5701 398.917 50.5723 396.919C42.9097 392.924 35.2471 388.928 26.9183 385.931C17.9231 382.601 9.59419 383.6 1.2653 388.595C-10.7283 395.921 -20.7229 405.91 -31.0508 415.567C-42.7112 426.888 -54.7048 437.544 -65.6989 449.864C-73.3615 458.855 -73.6946 462.518 -68.031 472.507C-58.7026 488.824 -47.3754 503.808 -34.3823 517.46C-30.3844 521.456 -26.0534 523.787 -20.7229 523.454Z" fill="#FCBF49"/>
<path d="M253.464 665.306C267.123 667.97 274.786 660.644 279.45 647.658C287.446 626.014 294.442 603.704 301.771 581.727C307.102 565.743 306.102 550.093 301.438 534.443C299.439 527.783 296.441 522.122 291.11 518.126C275.785 505.473 259.461 494.151 242.803 483.829C233.141 478.168 228.477 479.5 221.814 488.824C215.151 497.814 209.82 508.137 203.824 517.46C195.495 530.447 194.162 544.432 198.493 559.417C207.155 589.385 217.483 618.355 227.811 647.658C232.142 660.311 239.804 667.637 253.464 665.306Z" fill="#FCBF49"/>
<path d="M367.736 184.141C361.739 184.141 351.745 183.808 341.75 184.141C331.089 184.807 320.095 184.141 310.433 191.134C305.436 194.797 302.771 198.46 303.437 204.786C304.103 218.106 307.435 230.759 309.434 244.079C312.432 264.724 318.096 284.037 330.423 300.686C334.754 306.68 339.751 311.675 346.747 313.007C365.071 316.004 383.394 317.669 402.051 317.003C407.715 316.67 412.046 313.673 414.711 308.012C416.377 304.349 417.709 300.686 418.376 296.691C421.041 280.707 422.374 264.391 424.039 248.408C425.372 235.088 427.038 221.769 426.371 208.116C426.038 194.464 421.374 188.803 408.714 186.139C396.721 183.808 384.061 185.473 367.736 184.141Z" fill="#FCBF49"/>
<path d="M1445.83 780.852C1456.49 780.852 1463.82 780.852 1471.15 780.852C1478.48 780.519 1485.47 780.186 1492.8 779.52C1500.13 778.855 1507.13 778.189 1514.12 775.525C1522.12 772.195 1524.78 766.534 1522.79 757.876C1522.12 755.213 1521.12 752.549 1520.12 749.885C1509.13 726.576 1496.13 704.599 1481.14 683.953C1477.81 679.292 1473.48 675.629 1468.48 674.297C1454.49 670.634 1440.16 667.304 1426.17 670.967C1402.85 676.961 1381.19 687.949 1359.87 698.938C1359.21 699.271 1358.87 699.604 1358.54 699.937C1352.21 704.599 1351.21 708.594 1354.21 715.92C1355.21 718.251 1356.21 720.249 1357.21 722.247C1365.54 736.232 1374.53 749.552 1384.19 762.538C1391.86 773.194 1402.18 778.522 1414.84 780.186C1426.17 781.185 1437.83 780.519 1445.83 780.852Z" fill="#FCBF49"/>
<path d="M834.82 611.362C834.82 600.374 835.153 589.718 834.82 578.73C834.487 569.073 832.821 559.75 826.158 552.757C813.831 539.77 799.839 528.782 785.18 519.125C779.183 515.13 773.186 515.463 767.523 520.124C760.859 525.452 754.529 530.78 748.533 536.774C742.869 542.434 739.537 549.094 738.538 557.419C737.872 563.079 737.205 568.74 737.205 574.068C737.205 593.714 737.205 613.36 737.205 633.34C737.205 639.999 738.205 646.659 739.537 652.986C741.203 660.977 745.534 666.971 752.531 670.301C769.188 677.96 786.512 683.62 804.503 686.617C818.162 688.948 826.824 682.621 830.822 668.636C831.488 666.305 832.155 663.641 832.488 660.977C835.819 644.328 835.153 628.012 834.82 611.362Z" fill="#FCBF49"/>
<path d="M387.725 174.485C397.387 174.485 405.05 174.152 413.045 174.485C427.038 175.151 439.698 171.155 451.025 162.164C456.022 158.168 458.688 153.84 459.354 147.18C460.353 133.194 458.688 119.209 457.355 105.224C456.356 94.9011 455.689 84.9115 453.357 74.9219C451.358 64.9323 445.361 59.6045 435.7 58.2726C431.036 57.6066 426.372 56.9406 421.374 57.2736C403.717 57.9396 386.393 58.6056 368.736 59.9375C347.747 61.6024 340.417 67.2632 336.753 85.9104C332.422 107.555 329.09 129.865 328.757 152.175C328.424 166.826 334.087 172.487 347.747 173.819C361.739 174.485 375.732 174.152 387.725 174.485Z" fill="#FCBF49"/>
<path d="M964.084 630.343C964.084 633.34 964.084 636.336 964.084 639.333C963.418 651.654 968.748 659.978 978.743 665.639C987.405 670.634 995.734 675.629 1004.73 679.625C1010.73 682.289 1016.72 684.619 1023.39 683.287C1040.04 679.625 1055.37 672.965 1070.69 665.306C1077.36 661.976 1080.36 655.983 1080.36 647.991C1080.36 632.674 1077.69 617.689 1076.36 602.372C1075.02 585.39 1066.03 573.735 1053.04 565.077C1034.71 552.424 1016.06 540.104 996.733 529.448C982.075 521.456 975.078 524.786 972.413 542.101C968.082 571.404 965.75 600.707 964.084 630.343Z" fill="#FCBF49"/>
<path d="M618.269 415.567C612.605 415.234 607.275 415.567 601.944 417.232C571.96 424.89 541.976 433.215 512.326 442.206C506.662 443.871 500.998 445.868 495.668 448.532C489.005 451.529 487.672 455.192 489.671 462.518C490.67 466.181 492.003 469.177 494.002 472.174C498.666 479.167 504.996 483.829 511.326 488.824C535.98 507.138 562.632 521.123 589.284 535.775C594.615 538.772 600.278 541.102 606.275 542.434C611.939 543.766 617.269 542.767 621.934 539.104C628.597 533.777 634.26 527.117 640.59 521.123C648.919 513.132 651.918 503.475 650.585 491.82C648.586 473.173 645.254 454.859 641.59 436.545C638.258 416.899 637.259 416.233 618.269 415.567Z" fill="#FCBF49"/>
<path d="M66.2306 209.115C54.5701 209.115 53.2375 210.114 49.5728 221.769C48.5734 225.099 47.5739 228.761 46.9076 232.091C41.2439 258.397 35.5803 285.036 29.9166 311.342C27.2514 324.328 24.5862 337.315 23.2535 350.301C21.9209 363.621 24.5862 369.282 35.9134 374.942C40.9108 377.273 45.5749 379.604 50.9054 381.269C56.5691 382.934 61.8996 381.935 66.5637 377.939C68.8958 375.608 71.5611 373.61 73.8932 370.947C95.8814 345.973 115.538 319.334 135.527 292.362C141.191 284.703 144.189 275.713 142.856 265.723C141.524 256.066 139.858 246.743 136.86 237.752C134.861 232.091 130.863 228.428 125.532 226.431C117.536 223.434 109.541 220.437 101.212 217.44C89.5514 213.777 78.5573 209.115 66.2306 209.115Z" fill="#FCBF49"/>
<path d="M361.406 325.66C359.407 325.66 357.075 325.66 355.076 325.66C344.748 324.994 337.419 329.656 333.088 339.313C330.756 344.308 328.424 349.302 326.092 354.297C319.429 368.949 320.095 375.275 330.423 387.596C331.422 388.595 332.089 389.594 333.088 390.593C348.08 405.577 363.072 420.894 378.397 435.879C386.06 443.204 394.389 449.864 405.383 450.197C423.706 450.53 441.363 447.533 459.354 443.537C470.348 441.207 473.346 435.213 471.347 423.558C469.682 413.902 467.683 404.245 465.684 394.589C463.685 384.932 461.686 374.942 455.023 367.617C446.361 357.96 438.032 348.303 429.037 339.646C422.707 333.652 415.711 330.322 407.382 329.323C392.39 327.658 377.065 325.66 361.406 325.66Z" fill="#FCBF49"/>
<path d="M-41.7117 886.742C-41.7117 893.735 -42.0449 900.727 -41.7117 907.72C-41.3786 917.71 -39.3796 927.699 -32.3834 935.025C-18.724 949.343 -3.39887 961.997 12.5926 972.985C18.2562 976.981 23.9199 976.648 29.5835 972.652C35.2472 968.657 39.9113 963.662 45.2418 959.333C54.9033 951.341 58.568 940.686 57.9017 928.365C56.5691 905.389 55.2365 882.08 52.2381 859.437C50.5723 846.784 48.2402 834.463 36.2466 827.803C17.9231 817.481 -1.39994 809.489 -21.7224 803.495C-31.0508 800.832 -35.3818 804.161 -37.7139 813.818C-38.047 815.483 -38.3802 816.815 -38.7133 818.48C-41.3786 841.123 -41.3786 864.099 -41.7117 886.742Z" fill="#FCBF49"/>
<path d="M99.5461 666.638C98.5467 675.629 101.878 682.289 108.541 687.616C113.872 691.945 119.535 696.607 125.199 700.27C132.195 704.599 139.858 705.931 147.521 702.934C153.85 700.603 160.514 697.939 166.844 695.275C179.837 689.614 193.163 684.62 205.49 677.294C216.484 670.967 220.148 663.641 217.15 650.988C210.154 619.021 199.493 588.054 186.167 558.418C182.169 549.427 176.172 547.096 167.177 549.427C155.516 552.424 144.522 556.753 133.528 561.415C125.865 564.745 120.535 570.738 117.87 578.73C108.541 607.7 104.21 637.336 99.5461 666.638Z" fill="#FCBF49"/>
<path d="M189.165 891.737C187.166 902.059 191.83 910.051 199.493 917.044C213.485 929.364 227.811 940.686 242.47 952.34C255.13 962.33 267.79 962.663 281.116 953.672C298.107 942.018 315.098 930.03 331.089 916.711C340.417 909.052 341.417 899.728 333.421 890.738C314.098 869.427 293.776 848.782 271.121 831.133C263.792 825.473 255.13 824.474 246.801 828.136C230.809 835.129 215.484 843.787 200.825 853.776C194.495 858.105 191.164 864.099 190.497 871.758C189.831 878.084 188.832 884.411 189.165 891.737Z" fill="#FCBF49"/>
<path d="M1307.9 668.969C1307.9 673.298 1307.9 677.294 1307.9 681.623C1308.23 686.284 1310.57 689.614 1314.9 690.613C1324.89 692.944 1334.89 694.276 1344.88 690.613C1362.2 684.286 1379.2 676.628 1395.52 668.636C1411.51 660.645 1416.18 650.988 1412.84 632.674C1408.85 608.699 1402.52 584.724 1396.85 561.082C1393.52 548.095 1390.86 535.442 1385.86 523.121C1381.86 513.798 1376.86 512.466 1369.53 518.792C1366.54 521.123 1363.87 523.787 1361.54 526.451C1350.54 538.439 1340.22 550.426 1329.89 563.08C1321.23 573.735 1315.56 585.723 1313.9 599.708C1310.9 623.017 1309.23 645.993 1307.9 668.969Z" fill="#FCBF49"/>
<path d="M652.251 425.556C655.249 445.868 657.914 469.51 664.244 492.153C666.576 500.145 670.907 506.805 677.904 510.801C692.229 518.792 707.221 525.785 722.546 530.78C729.21 532.778 735.206 531.779 740.87 527.45C747.533 522.455 753.863 516.794 759.86 511.134C766.856 504.807 771.187 497.148 773.852 488.158C777.184 475.504 779.516 462.851 781.848 449.864C782.514 446.867 782.848 443.87 783.181 440.874C785.18 425.889 781.848 420.228 767.522 416.899C751.531 413.236 735.206 411.571 718.882 409.573C704.223 407.575 689.564 406.243 675.238 404.911C662.579 403.246 651.918 411.238 652.251 425.556Z" fill="#FCBF49"/>
<path d="M1176.64 176.816C1169.97 176.816 1164.98 178.814 1160.65 182.476C1155.98 186.805 1151.32 191.134 1146.65 195.796C1138.32 203.788 1135.99 213.444 1138.66 224.766C1144.32 249.74 1150.98 274.048 1158.31 298.689C1160.65 306.347 1163.31 314.006 1166.31 321.332C1169.97 329.323 1174.31 330.988 1181.3 326.326C1195.29 317.003 1209.29 307.346 1219.95 293.694C1236.27 273.049 1251.26 251.072 1265.92 228.762C1267.92 225.765 1269.59 222.768 1270.59 219.105C1271.59 215.775 1271.25 212.778 1269.25 210.114C1262.92 202.789 1256.26 195.796 1246.6 193.465C1235.27 190.801 1224.28 187.138 1212.62 184.474C1200.29 181.477 1188.3 178.481 1176.64 176.816Z" fill="#FCBF49"/>
<path d="M614.604 227.763C604.943 226.764 595.614 228.096 585.953 228.761C580.956 229.094 575.958 230.426 573.293 235.754C568.629 245.411 565.63 255.4 568.962 266.389C580.956 308.012 594.615 348.969 609.94 389.261C615.27 402.913 634.26 408.241 646.254 400.582C651.584 397.252 656.582 393.59 657.914 386.597C662.579 360.624 666.576 334.651 666.243 308.345C665.91 284.037 655.915 262.06 647.253 239.75C644.255 232.091 638.591 228.096 630.929 227.763C625.598 227.763 620.268 227.763 614.604 227.763Z" fill="#FCBF49"/>
<path d="M379.063 -32.2996C363.072 -32.2996 347.414 -32.6326 331.422 -32.2996C318.762 -31.9667 305.769 -32.2996 293.443 -28.9698C285.447 -26.6389 283.781 -22.3101 287.779 -14.6514C288.778 -12.9864 289.778 -11.6545 290.777 -9.98957C299.772 2.99689 309.767 14.9844 319.429 27.6379C332.089 44.2872 348.08 51.2799 368.069 50.2809C387.392 49.282 407.049 48.949 426.372 47.617C437.366 46.6181 449.026 44.9531 455.689 33.9646C464.684 19.3132 471.014 2.99689 475.679 -13.9854C477.677 -20.9781 475.012 -25.6399 468.016 -27.9708C462.019 -29.9687 455.689 -30.6347 449.359 -31.3007C426.038 -32.6326 402.718 -31.9667 379.063 -32.2996Z" fill="#FCBF49"/>
<path d="M623.933 -30.6347C623.933 -30.6347 623.933 -30.9677 623.933 -30.6347C613.938 -30.9677 603.61 -30.9677 593.615 -30.9677C581.289 -30.6347 568.962 -31.3007 556.635 -29.6358C542.309 -27.3049 539.977 -21.9771 547.307 -8.99063C547.64 -8.65764 547.64 -8.32465 547.973 -7.99167C558.634 9.6566 570.628 26.9719 582.954 43.6212C591.617 55.2757 601.944 64.2663 615.937 66.9302C626.931 69.2611 637.925 71.592 649.252 73.257C667.576 75.9208 672.573 72.924 681.235 55.6087C688.232 41.6233 694.228 27.3049 700.558 13.3194C705.222 2.99688 705.889 -7.3257 705.222 -18.3142C704.889 -23.642 702.557 -26.9719 697.56 -27.9708C691.563 -29.3028 685.566 -29.9688 679.569 -30.3017C660.58 -30.6347 642.256 -30.6347 623.933 -30.6347Z" fill="#FCBF49"/>
<path d="M475.345 382.934C476.012 394.589 478.344 405.577 481.342 416.566C485.007 431.55 490.337 435.213 504.663 432.216C529.983 426.888 555.303 420.228 579.956 411.238C595.947 405.244 600.612 396.919 596.614 379.604C589.284 348.636 578.957 318.335 566.963 289.032C560.633 273.382 553.304 272.383 541.976 284.37C531.649 295.026 522.653 306.68 513.658 318.335C502.331 332.653 490.337 346.639 481.009 362.622C477.344 368.949 474.679 375.608 475.345 382.934Z" fill="#FCBF49"/>
<path d="M820.827 360.291C820.494 360.291 820.494 360.291 820.827 360.291C820.494 356.295 820.494 352.299 820.494 348.304C820.161 329.989 816.496 325.327 799.505 320.999C798.839 320.666 798.173 320.666 797.173 320.333C775.518 316.337 753.863 314.339 731.875 312.008C719.548 310.676 706.888 308.678 694.228 310.343C685.233 311.675 680.236 315.671 678.237 324.994C674.572 342.31 672.24 359.958 672.24 377.606C672.24 385.265 675.572 390.593 682.568 393.59C685.899 394.922 688.898 396.253 692.229 396.919C716.217 401.581 740.204 403.912 764.191 406.576C771.52 407.242 778.85 408.574 786.512 407.575C798.839 405.577 807.501 397.585 815.83 388.928C822.16 382.601 820.161 373.61 820.494 365.286C820.827 363.288 820.827 361.623 820.827 360.291Z" fill="#FCBF49"/>
<path d="M114.538 432.882C128.531 431.883 143.523 431.55 158.182 430.218C170.175 429.219 182.502 429.219 194.495 425.556C203.157 422.892 206.822 417.232 205.156 407.908C203.824 400.915 202.158 394.256 200.825 387.263C194.829 354.63 181.169 325.66 159.847 301.019C153.184 293.361 148.853 293.028 141.191 299.688C139.858 300.686 138.525 302.018 137.526 303.35C121.534 319.667 108.875 338.98 94.5488 356.628C87.2194 365.619 79.89 374.609 74.8927 385.598C72.8937 389.594 71.5611 393.59 72.5606 398.251C77.2248 419.562 92.8831 432.882 114.538 432.882Z" fill="#FCBF49"/>
<path d="M1464.15 659.313C1472.15 660.644 1478.81 655.983 1483.81 647.991C1492.8 633.673 1500.46 618.688 1507.13 603.038C1510.79 594.38 1510.13 586.389 1505.13 578.397C1500.8 571.737 1495.8 565.743 1490.14 560.083C1470.81 539.77 1450.49 520.79 1430.17 501.144C1422.51 493.818 1414.84 486.16 1405.85 479.833C1400.18 475.837 1398.19 476.836 1395.19 483.163C1391.86 490.156 1391.19 497.814 1392.52 505.473C1398.19 535.775 1405.85 565.743 1413.18 595.712C1416.84 611.362 1420.84 627.346 1426.84 642.33C1430.17 650.322 1435.17 655.65 1443.49 656.982C1450.16 657.981 1456.49 659.313 1464.15 659.313Z" fill="#FCBF49"/>
<path d="M1223.95 422.559C1241.27 422.226 1255.59 417.565 1269.92 413.902C1287.58 409.573 1305.24 405.244 1322.56 399.25C1326.22 397.918 1329.89 396.586 1331.55 392.258C1334.55 384.599 1331.22 371.945 1324.89 366.951C1321.56 364.287 1317.9 361.956 1314.23 359.958C1294.91 349.635 1275.58 339.313 1255.93 328.99C1248.6 324.994 1241.27 321.665 1233.61 318.335C1223.28 314.006 1213.28 314.339 1203.96 321.665C1196.63 327.658 1188.96 333.319 1181.3 339.313C1175.64 343.642 1172.31 349.635 1170.97 356.961C1169.97 361.956 1169.31 367.284 1168.64 372.611C1167.31 382.934 1168.97 392.258 1177.97 398.251C1187.3 404.578 1196.63 410.905 1205.95 417.232C1211.95 420.894 1218.61 423.225 1223.95 422.559Z" fill="#FCBF49"/>
<path d="M841.816 254.401C841.816 273.382 843.815 277.044 858.474 282.372C877.797 289.032 897.453 294.027 917.109 298.689C929.769 301.685 940.763 298.023 949.758 288.699C963.418 274.714 976.411 260.062 988.404 244.412C995.734 234.755 994.734 226.764 984.74 220.104C965.417 207.783 945.427 196.795 924.772 187.804C913.444 182.809 902.783 184.807 892.789 192.133C880.462 201.124 868.802 211.446 856.808 221.103C845.481 230.093 840.484 241.748 841.816 254.401Z" fill="#FCBF49"/>
<path d="M971.414 481.498C970.747 494.484 976.078 504.474 987.072 511.8C1011.39 527.783 1035.71 543.766 1061.03 558.085C1063.36 559.417 1065.7 560.416 1067.7 561.082C1074.03 563.413 1079.69 562.747 1084.69 558.085C1088.02 554.755 1091.35 551.425 1094.68 548.095C1105.01 537.107 1106.34 530.78 1100.01 516.794C1087.02 487.825 1072.69 459.188 1057.37 431.217C1050.7 418.897 1038.71 415.234 1026.38 420.894C1010.73 428.22 996.4 438.21 983.407 450.53C975.745 458.855 970.747 468.512 971.414 481.498Z" fill="#FCBF49"/>
<path d="M189.165 438.876C178.504 438.21 168.509 439.542 158.515 440.208C142.19 441.207 125.865 442.206 109.541 444.87C99.2129 446.534 91.5504 451.862 87.5525 462.518C84.8873 469.51 81.8889 476.503 79.2236 483.496C75.5589 492.154 76.5584 500.478 81.5557 508.137C90.2177 520.79 99.5461 533.111 109.874 544.432C116.204 551.425 123.866 552.757 132.528 550.426C145.522 546.763 157.848 541.435 170.175 536.441C178.504 533.111 184.834 527.45 189.831 519.791C199.16 505.473 208.155 490.822 216.15 476.17C217.816 473.173 219.149 470.176 219.815 466.514C222.814 452.528 212.819 438.876 199.493 438.543C195.828 438.876 192.496 438.876 189.165 438.876Z" fill="#FCBF49"/>
<path d="M125.865 -30.6347C108.874 -30.6347 91.8835 -30.6347 74.8926 -30.6347C68.5627 -30.6347 61.8996 -29.6357 55.5696 -27.6378C48.5734 -25.3069 46.5744 -20.9781 48.5734 -13.6524C49.906 -8.65762 52.2381 -3.99581 54.9033 0.665995C62.5659 13.6525 70.5616 26.6389 78.2242 39.2924C83.2215 47.284 88.2188 54.9427 94.2156 61.9354C102.211 71.592 112.206 73.9229 123.2 69.2611C144.855 60.2705 165.844 49.9479 186.166 37.2945C193.163 32.9656 197.827 26.6389 200.159 18.6472C202.824 9.32364 204.823 2.28882e-05 206.156 -9.65658C208.155 -22.976 204.49 -27.6378 191.497 -29.3028C190.497 -29.6357 189.165 -29.3028 188.165 -29.6357C167.51 -31.6337 146.521 -30.9677 125.865 -30.6347Z" fill="#FCBF49"/>
<path d="M382.728 805.16C383.394 796.17 381.729 787.512 378.397 779.188C376.065 772.861 373.067 766.534 371.401 760.207C367.07 744.557 357.741 735.233 342.749 731.571C341.75 731.238 341.084 730.905 340.084 730.572C330.423 727.575 325.092 729.24 318.429 737.564C305.103 754.88 292.776 773.194 281.449 792.174C273.453 805.493 274.12 816.482 284.781 827.804C305.103 850.114 327.424 870.426 349.413 890.738C359.407 899.728 370.068 893.735 372.067 882.413C376.398 856.773 380.729 831.133 382.728 805.16Z" fill="#FCBF49"/>
<path d="M369.735 994.962C389.391 994.962 409.047 995.295 428.704 994.962C440.697 994.629 452.691 995.628 464.684 992.299C469.348 990.967 471.681 987.97 473.013 982.975C475.012 974.317 472.014 968.324 465.351 963.329C446.694 948.677 426.705 936.024 406.382 924.036C383.394 910.384 360.74 910.717 338.085 925.368C318.096 938.355 298.773 952.673 279.783 967.325C277.451 968.99 275.452 971.32 273.453 973.318C270.122 977.647 269.455 982.309 271.121 987.637C272.787 992.632 276.452 993.297 280.783 993.63C283.781 993.963 286.446 994.629 289.445 994.629C316.097 994.962 343.083 995.961 369.735 994.962Z" fill="#FCBF49"/>
<path d="M727.544 175.484C744.535 176.483 747.866 175.151 755.196 159.167C765.524 136.857 774.186 113.881 781.182 90.2392C784.513 78.5847 782.181 68.2622 773.519 59.9375C759.194 45.9521 743.868 32.6326 727.544 20.9781C717.216 13.3195 711.219 14.9844 705.222 26.6389C697.893 40.2913 691.563 54.2767 685.899 68.5951C682.901 75.9208 681.568 83.9125 681.568 92.2372C681.568 101.561 683.567 110.551 685.233 119.542C687.898 133.527 689.897 147.846 694.228 161.165C696.894 169.157 702.224 173.486 710.22 174.152C716.55 174.818 722.213 175.151 727.544 175.484Z" fill="#FCBF49"/>
<path d="M1167.31 794.505C1173.64 794.505 1182.3 793.173 1190.96 791.841C1208.62 788.844 1226.28 786.846 1243.93 782.184C1254.6 779.52 1261.92 772.861 1264.59 761.206C1267.26 750.218 1269.25 738.896 1270.59 727.575C1271.92 715.254 1269.25 710.259 1258.93 704.599C1257.26 703.6 1255.93 702.934 1254.26 702.268C1231.61 692.944 1208.62 684.286 1184.97 677.294C1176.97 674.963 1163.98 677.627 1161.31 688.615C1154.65 716.586 1148.32 744.89 1144.99 773.527C1143.65 791.508 1147.99 795.504 1167.31 794.505Z" fill="#FCBF49"/>
<path d="M227.478 440.541C229.144 449.864 231.143 459.188 238.472 465.515C254.797 479.833 272.454 492.154 291.11 503.142C298.107 507.471 305.769 508.137 313.765 504.474C334.087 494.484 352.744 482.164 370.401 467.846C380.063 460.187 380.396 453.527 372.4 443.871C357.408 426.222 341.084 410.239 324.093 395.255C314.098 386.597 302.771 386.264 291.444 392.924C283.781 397.252 276.118 401.914 268.789 406.909C256.795 414.901 243.802 421.893 232.808 431.55C229.477 433.548 227.478 436.212 227.478 440.541Z" fill="#FCBF49"/>
<path d="M1102.34 94.901C1088.68 95.234 1075.02 94.901 1061.03 96.233C1048.71 97.5649 1042.71 102.227 1041.71 112.549C1041.38 115.879 1041.71 119.542 1042.04 122.872C1043.71 133.86 1045.37 145.182 1047.37 156.17C1050.04 170.489 1051.7 184.807 1056.37 198.46C1060.03 209.448 1065.03 212.445 1076.02 211.113C1084.02 210.114 1091.68 207.783 1099.68 207.117C1123 204.786 1138.99 190.468 1153.32 172.82C1156.98 168.158 1158.98 162.83 1158.31 157.169C1156.65 141.852 1154.98 126.868 1150.98 112.216C1147.99 100.895 1142.66 96.566 1131.33 95.567C1121.67 94.2351 1112.01 94.5681 1102.34 94.901Z" fill="#FCBF49"/>
<path d="M163.845 995.628C182.169 995.628 200.492 995.961 218.816 995.628C228.477 995.296 237.806 994.962 247.467 993.298C251.798 992.632 253.797 989.968 253.797 984.973C253.797 977.98 250.465 972.985 245.801 968.99C231.142 955.67 215.151 944.349 200.159 931.695C185.167 919.042 169.176 917.71 151.518 923.703C131.529 930.696 111.54 938.355 91.2172 945.015C73.56 951.008 58.9012 960.998 45.9081 974.65C38.5787 981.976 39.9113 986.638 49.5728 989.635C60.5669 992.965 72.2274 993.631 83.5547 994.297C110.207 996.294 137.193 995.628 163.845 995.628Z" fill="#FCBF49"/>
<path d="M1037.05 995.628C1067.03 995.628 1087.35 995.961 1107.67 995.628C1118 995.295 1128.66 995.295 1138.99 991.966C1143.99 990.301 1146.32 986.971 1146.65 981.31C1147.99 962.996 1143.99 947.345 1127.33 938.022C1126.33 937.689 1125.66 937.023 1125 936.357C1112.34 924.036 1097.68 922.371 1081.35 925.701C1048.71 932.694 1016.06 940.686 983.74 949.01C974.745 951.341 965.75 953.339 957.754 957.668C954.089 959.666 950.758 961.664 949.425 966.326C945.761 982.309 951.091 990.967 966.083 993.63C968.082 993.963 970.081 994.296 972.413 994.296C996.733 996.96 1021.72 994.962 1037.05 995.628Z" fill="#FCBF49"/>
<path d="M572.627 995.629C600.945 995.629 623.599 995.629 646.254 995.629C656.249 995.629 666.576 994.963 676.571 993.298C686.233 991.633 687.898 986.971 681.568 979.312C680.236 977.647 679.236 976.315 677.904 974.65C661.246 958.001 643.922 941.685 625.598 927.033C616.27 919.708 605.942 917.71 594.615 920.041C591.616 920.707 588.618 921.04 585.62 922.039C566.963 927.033 547.64 929.697 530.982 941.352C521.321 948.012 511.659 954.671 502.331 961.331C498.666 963.995 495.001 966.659 492.669 970.655C484.674 983.641 488.672 993.631 503.33 994.963C504.33 994.963 505.662 994.963 506.662 994.963C530.316 996.627 554.303 994.963 572.627 995.629Z" fill="#FCBF49"/>
<path d="M364.071 568.74C380.063 569.739 388.725 561.748 397.054 554.089C420.042 532.445 441.697 509.802 463.685 486.826C467.683 482.83 471.347 478.501 474.346 473.506C477.677 468.178 477.344 462.518 474.679 457.523C472.014 452.861 467.016 453.527 462.685 453.86C457.022 454.526 451.358 455.192 445.695 455.858C429.37 458.522 412.712 458.189 397.387 464.516C369.069 476.836 344.415 495.483 319.762 514.131C315.098 517.46 313.099 522.788 313.765 529.115C314.764 536.774 316.097 544.099 318.762 551.425C320.095 555.754 323.093 558.751 327.091 560.083C340.084 564.411 353.744 567.741 364.071 568.74Z" fill="#FCBF49"/>
<path d="M1084.69 591.05C1085.69 608.033 1087.02 625.015 1089.68 641.997C1092.35 658.647 1096.01 661.976 1112.01 665.306C1114.67 665.972 1117.67 666.638 1120.33 666.971C1132.66 668.636 1144.65 671.633 1157.31 670.967C1167.64 670.634 1173.97 666.305 1174.97 658.314C1176.3 649.656 1177.3 640.998 1177.64 632.008C1177.97 622.684 1179.3 613.027 1179.3 603.704C1179.3 591.383 1181.97 579.396 1179.97 567.075C1178.3 556.753 1174.97 552.091 1165.31 549.76C1155.98 547.429 1146.32 546.763 1137.32 544.765C1122.67 541.436 1110.67 545.098 1101.34 557.752C1099.35 560.416 1097.01 562.414 1095.01 564.745C1087.68 571.737 1083.35 580.062 1084.69 591.05Z" fill="#FCBF49"/>
<path d="M485.007 583.392C485.673 561.415 485.673 539.105 483.008 517.128C480.676 495.816 472.68 492.487 456.355 505.806C436.033 522.455 418.043 541.436 401.052 561.748C400.052 563.08 399.053 564.412 398.386 565.743C391.39 576.732 391.057 584.391 398.72 595.046C410.38 611.363 424.039 626.347 437.032 641.331C446.028 651.987 455.689 652.986 468.016 648.324C477.677 644.661 481.675 638.334 483.008 628.012C484.674 613.028 483.674 598.043 485.007 583.392Z" fill="#FCBF49"/>
<path d="M1028.05 327.325C1026.72 298.023 1028.05 275.047 1026.05 251.738C1025.72 246.41 1025.05 240.749 1019.05 238.418C1013.39 236.087 1008.39 237.419 1004.06 242.081C988.405 258.397 973.079 275.38 958.754 293.361C949.425 305.015 947.76 317.003 954.09 330.655C959.42 342.976 965.75 354.63 972.08 366.285C980.076 381.269 987.405 396.919 997.4 410.905C1000.06 414.568 1003.06 417.232 1008.06 416.233C1019.39 413.902 1026.38 405.244 1027.38 393.257C1028.72 369.282 1028.05 345.307 1028.05 327.325Z" fill="#FCBF49"/>
<path d="M327.424 323.996C327.758 317.336 325.425 312.341 317.43 300.02C310.767 290.031 307.102 288.699 296.108 292.695C294.442 293.361 292.443 294.027 290.777 295.026C272.787 304.349 254.796 313.673 237.139 323.33C228.477 327.991 220.148 332.653 212.819 339.313C206.489 344.974 203.491 351.633 204.823 360.624C206.822 374.609 210.487 387.929 214.818 401.581C220.815 420.561 226.145 422.559 242.803 413.236C258.794 404.245 273.786 393.59 289.445 383.933C310.433 371.28 318.096 349.302 326.758 327.991C327.424 326.326 327.091 324.661 327.424 323.996Z" fill="#FCBF49"/>
<path d="M834.82 995.628C855.142 995.628 875.132 995.961 895.454 995.628C904.449 995.628 913.777 994.297 922.773 993.298C927.437 992.632 932.767 990.634 932.767 984.973C932.767 973.651 933.767 961.331 924.438 952.34C916.776 945.015 908.447 938.355 900.451 931.695C893.455 926.034 885.126 923.703 876.797 925.368C854.143 930.03 831.488 935.358 809.833 943.683C788.178 952.34 770.521 967.991 751.531 981.31C749.532 982.642 747.866 984.307 746.2 985.972C743.202 989.302 743.868 991.633 747.866 992.965C750.865 993.964 754.196 993.964 757.528 994.297C783.181 996.627 809.167 995.296 834.82 995.628Z" fill="#FCBF49"/>
<path d="M-86.3545 995.628C-72.6951 995.628 -59.3689 995.961 -45.7096 995.628C-33.0497 994.962 -20.3898 995.295 -8.063 991.632C2.93112 988.303 4.59688 982.975 -3.39885 974.317C-14.0598 962.663 -26.3866 952.673 -39.3796 943.683C-46.0427 939.021 -53.039 936.024 -61.0347 935.025C-87.0208 931.029 -113.007 931.029 -139.326 930.363C-143.324 930.363 -146.989 930.696 -150.653 931.362C-158.316 933.027 -161.648 937.023 -162.647 945.348C-163.647 955.67 -163.647 965.66 -162.647 975.982C-161.648 985.972 -158.316 990.967 -148.988 993.297C-145.656 993.963 -142.325 994.629 -138.66 994.962C-121.336 996.96 -103.679 995.295 -86.3545 995.628Z" fill="#FCBF49"/>
<path d="M1417.18 44.6201C1407.51 44.6201 1404.18 48.616 1404.18 58.6056C1404.18 59.9375 1404.52 61.2695 1404.52 62.9344C1407.85 84.9115 1413.18 106.556 1419.17 127.867C1422.17 138.522 1425.84 149.178 1432.5 158.501C1438.16 166.16 1445.16 168.158 1453.82 164.162C1457.82 162.164 1461.15 159.833 1464.15 156.836C1482.14 139.521 1497.47 119.875 1511.46 98.8969C1519.12 87.2424 1517.12 80.2497 1505.13 73.5899C1502.8 72.258 1500.8 71.259 1498.47 70.2601C1478.81 62.2684 1458.82 55.6087 1438.83 49.6149C1431.5 47.284 1424.5 44.6201 1417.18 44.6201Z" fill="#FCBF49"/>
<path d="M1330.89 300.686C1330.89 293.694 1330.89 286.701 1330.89 279.708C1330.89 272.716 1329.89 265.723 1328.56 258.73C1327.22 251.737 1323.89 246.41 1318.56 242.747C1312.56 238.751 1306.23 234.755 1299.9 231.092C1285.58 222.768 1279.58 224.1 1269.25 237.419C1257.93 252.071 1247.6 267.055 1237.6 282.705C1228.61 297.024 1230.28 304.682 1244.27 314.006C1244.93 314.672 1245.93 315.005 1246.6 315.671C1262.92 325.66 1279.92 334.318 1296.91 342.976C1302.57 345.973 1308.23 348.636 1314.23 350.634C1324.89 354.297 1329.56 350.634 1330.55 338.98C1332.22 325.327 1332.22 313.007 1330.89 300.686Z" fill="#FCBF49"/>
<path d="M1502.13 995.961C1524.78 995.961 1547.11 995.961 1569.76 995.961C1574.76 995.961 1580.09 995.296 1585.09 994.63C1587.08 994.297 1589.75 994.296 1590.08 991.633C1590.75 988.969 1588.42 987.97 1586.75 986.638C1584.42 984.973 1581.75 983.641 1579.42 982.309C1568.43 976.648 1557.77 970.654 1546.77 964.994C1528.12 956.003 1510.13 946.014 1490.47 939.354C1482.47 936.69 1474.14 936.024 1466.15 939.354C1447.83 947.013 1431.17 957.335 1414.84 968.324C1413.84 968.99 1412.84 969.656 1412.18 970.655C1407.85 975.982 1407.18 982.642 1408.85 988.969C1410.18 994.297 1415.51 994.629 1419.84 994.962C1426.5 995.628 1433.5 996.294 1440.5 996.294C1461.15 995.962 1481.47 995.961 1502.13 995.961Z" fill="#FCBF49"/>
<path d="M1436.5 191.467C1433.5 191.134 1430.5 192.466 1428.17 194.131C1425.17 196.462 1422.17 199.126 1419.17 201.457C1410.18 209.115 1408.85 212.778 1413.18 223.767C1422.84 247.742 1433.17 271.717 1445.83 294.027C1451.82 304.682 1457.49 305.348 1465.82 296.691C1466.82 295.692 1467.81 294.693 1468.48 293.694C1482.14 277.044 1495.13 260.062 1506.79 241.748C1513.46 231.092 1511.79 225.432 1501.46 219.438C1484.81 210.114 1467.15 202.456 1449.82 194.464C1445.83 192.799 1441.16 192.133 1436.5 191.467Z" fill="#FCBF49"/>
</svg>
