<svg width="1440" height="794" viewBox="0 0 1440 794" fill="none" xmlns="http://www.w3.org/2000/svg">
<g clip-path="url(#clip0_4_2306)">
<g opacity="0.6">
<path d="M1467 0H-79V794H1467V0Z" fill="white"/>
<path d="M1495.63 309.329L1423.23 289.479L1422.4 282.587L1457.36 219.729L1495.63 215.318V309.329Z" fill="#D62828"/>
<path d="M1448.01 761.193L1420.2 755.127L1408.92 720.39L1457.09 703.848L1482.97 715.979L1448.01 761.193Z" fill="#FCBF49"/>
<path d="M1380.29 801.995L1350.28 760.641L1354.68 737.759L1395.43 717.909L1399.83 720.666L1411.94 758.16L1380.29 801.995Z" fill="#F77F00"/>
<path d="M1299.63 769.739L1281.18 735.277L1312.29 706.329L1346.15 736.656L1342.02 758.16L1299.63 769.739Z" fill="#F77F00"/>
<path d="M1218.97 791.243L1166.39 753.473L1164.74 745.753L1190.61 711.292L1225.02 715.151L1238.51 730.866L1218.97 791.243Z" fill="#F77F00"/>
<path d="M987.729 801.995L954.695 739.413L974.791 690.615L1021.31 695.577L1040.03 718.184L987.729 801.995Z" fill="#F77F00"/>
<path d="M875.138 749.338L820.631 751.543L810.17 695.302L825.036 678.208L874.862 698.058L882.295 738.586L875.138 749.338Z" fill="#D62828"/>
<path d="M736.669 768.912L680.786 731.418L735.843 692.269L747.681 700.54L749.608 755.679L736.669 768.912Z" fill="#FCBF49"/>
<path d="M656.837 752.37L607.285 754.576L595.999 707.432L638.393 684.549L672.253 730.315V732.244L656.837 752.37Z" fill="#FFD88C"/>
<path d="M584.987 778.01L529.655 744.099L531.857 734.726L580.307 706.329L587.465 708.535L599.302 758.16L584.987 778.01Z" fill="#D62828"/>
<path d="M499.098 762.571L465.238 749.062L452.575 720.114L474.598 682.344L486.435 677.382L491.39 678.76L523.323 732.521L520.846 743.824L499.098 762.571Z" fill="#F77F00"/>
<path d="M424.771 781.594L392.288 758.436L389.81 746.581L407.704 722.871L445.142 724.25L456.98 751.268L424.771 781.594Z" fill="#FCBF49"/>
<path d="M312.18 746.029L259.05 756.782L250.241 747.684L250.791 692.82L281.899 690.063L322.641 725.352L322.916 727.558L312.18 746.029Z" fill="#FCBF49"/>
<path d="M190.229 754.852L162.425 710.741L170.133 702.194L241.432 690.063L242.257 690.615L241.432 746.03L190.229 754.852Z" fill="#FCBF49"/>
<path d="M104.89 759.263L59.4683 773.599L44.0524 755.403L56.7155 714.6L115.351 721.217L104.89 759.263Z" fill="#FFD88C"/>
<path d="M-2.746 756.506L-10.454 748.786L0.832701 687.307L17.9004 674.349L26.4342 677.657L49.0076 710.465L35.7939 752.37L-2.746 756.506Z" fill="#FFD88C"/>
<path d="M8.54066 50.4521L44.603 70.3022L37.7209 111.105L-4.12243 122.96L-20.6395 82.9841L8.54066 50.4521Z" fill="#F77F00"/>
<path d="M122.233 22.8827L162.975 30.8778L168.206 76.6431L115.076 74.1619L98.5588 52.382L122.233 22.8827Z" fill="#D62828"/>
<path d="M195.734 0.551636L227.943 40.803L214.178 71.1294L176.464 74.4378L171.234 28.6725L195.734 0.551636Z" fill="#FCBF49"/>
<path d="M272.814 35.0134L298.691 66.1669L295.112 88.4981L294.562 88.7738L242.533 98.9745L222.162 74.7134L235.926 43.8356L272.814 35.0134Z" fill="#FCBF49"/>
<path d="M341.085 50.1768L374.945 66.9941L378.523 103.386L362.557 113.862L303.921 87.6712L307.225 67.8212L341.085 50.1768Z" fill="#D62828"/>
<path d="M410.732 43.5598L429.451 46.0411L447.069 70.3022L422.569 114.965L387.057 102.558L383.479 66.1668L410.732 43.5598Z" fill="#D62828"/>
<path d="M509.559 60.1017L551.402 47.144L567.094 56.242L574.251 114.689L512.312 105.867L501.576 71.9565L509.559 60.1017Z" fill="#F77F00"/>
<path d="M611.69 40.5273L641.145 54.5878L650.505 70.0266L649.954 74.4378L586.364 117.446H583.336L575.628 56.2419L611.69 40.5273Z" fill="#F77F00"/>
<path d="M719.051 49.625L726.759 54.0361L736.944 86.5681L716.573 112.208L676.657 104.488L658.488 75.816L658.764 71.9562L719.051 49.625Z" fill="#EAE2B7"/>
<path d="M779.614 24.8125L802.462 44.9382L803.563 72.7833L777.687 91.8063L745.203 83.8111L735.293 52.9333L779.614 24.8125Z" fill="#D62828"/>
<path d="M856.418 21.7802L878.166 62.3072L840.452 87.1198L812.372 72.2323L810.996 45.4899L856.418 21.7802Z" fill="#D62828"/>
<path d="M994.061 20.6771L1025.44 46.8681L1001.22 86.5681L979.471 89.6007L950.566 53.7605L994.061 20.6771Z" fill="#FCBF49"/>
<path d="M1044.71 47.6953L1063.98 59.2745L1072.79 107.245L1052.42 131.782L1009.2 89.8766L1033.98 49.9009L1044.71 47.6953Z" fill="#FCBF49"/>
<path d="M1202.73 42.1814L1224.2 44.9383L1245.67 77.746L1234.93 103.661L1209.61 112.759L1195.29 104.488L1186.76 58.1717L1202.73 42.1814Z" fill="#FFD88C"/>
<path d="M1263.84 8.27087L1290.54 41.0785L1284.21 63.4098L1252.55 72.232L1232.18 41.3542L1263.84 8.27087Z" fill="#D62828"/>
<path d="M1340.64 29.4996L1354.96 47.6955L1330.18 98.6989L1321.1 98.4233L1292.47 65.8913L1298.8 43.5601L1340.64 29.4996Z" fill="#D62828"/>
<path d="M1410.29 141.431L1413.59 186.094L1359.09 217.799L1356.06 217.523L1338.99 190.505L1365.97 134.815L1395.7 132.609L1410.29 141.431Z" fill="#F77F00"/>
<path d="M1430.94 624.172L1434.52 629.135L1385.79 671.316L1363.49 657.807L1359.36 605.15L1364.04 602.393L1430.94 624.172Z" fill="#FFD88C"/>
<path d="M1351.66 729.764L1316.69 698.61L1317.25 686.755L1359.09 665.527L1382.49 679.311L1390.47 710.741L1351.66 729.764Z" fill="#D62828"/>
<path d="M1224.47 706.605L1191.44 702.745L1171.89 663.872L1199.15 625L1252 650.915L1224.47 706.605Z" fill="#FCBF49"/>
<path d="M1121.79 653.947L1097.29 615.901L1164.46 577.029L1190.06 596.051L1193.37 618.383L1164.74 658.91L1121.79 653.947Z" fill="#FCBF49"/>
<path d="M1020.76 686.755L977.543 682.068L974.24 610.112L980.847 602.944L1043.89 629.135L1020.76 686.755Z" fill="#FCBF49"/>
<path d="M877.615 689.788L827.788 669.938L825.861 650.088L844.03 623.345L897.16 620.864L901.014 666.078L877.615 689.788Z" fill="#EAE2B7"/>
<path d="M803.564 689.788L753.186 693.647L739.697 684.274L732.54 652.844L758.141 622.518L817.328 651.742L819.255 671.592L803.564 689.788Z" fill="#F77F00"/>
<path d="M677.758 723.147L644.173 677.933L644.724 675.176L679.685 641.817L724.281 655.05L731.163 685.101L677.758 723.147Z" fill="#D62828"/>
<path d="M590.768 700.54L582.785 698.058L555.807 647.606L558.009 641.541L594.347 626.654L636.19 674.073L635.915 676.003L590.768 700.54Z" fill="#FCBF49"/>
<path d="M529.38 725.904L500.475 676.83L549.2 653.672L573.976 699.988L529.38 725.904Z" fill="#FCBF49"/>
<path d="M445.418 715.427L408.53 714.324L392.288 672.143L410.181 651.466L465.514 680.69L445.418 715.427Z" fill="#FCBF49"/>
<path d="M325.669 716.53L289.056 684.549L318.236 639.06L322.09 638.784L353.473 672.97L325.669 716.53Z" fill="#FCBF49"/>
<path d="M119.756 712.946L56.1649 705.778L35.5186 675.728L96.0812 642.92L122.784 710.465L119.756 712.946Z" fill="#F77F00"/>
<path d="M20.6532 666.078L10.7429 634.097L50.3839 591.365L98.5588 616.453L99.9352 619.761L94.9801 633.822L28.9117 669.386L20.6532 666.078Z" fill="#F77F00"/>
<path d="M-22.5666 608.182L-24.2183 566.001L-6.87531 547.805L37.4455 552.768L44.8782 584.748L5.23722 627.205L-22.5666 608.182Z" fill="#F77F00"/>
<path d="M-54.7749 306.297L-61.1064 248.125L-55.876 243.99L-21.4654 240.957L4.68664 258.05L6.61363 262.461L-9.35289 316.773L-54.7749 306.297Z" fill="#F77F00"/>
<path d="M-6.60005 171.758L46.5299 194.916L6.88891 249.228L-15.6844 234.34L-6.60005 171.758Z" fill="#FFD88C"/>
<path d="M71.0303 138.123L100.211 130.679L126.363 153.286L95.5307 208.15L61.9459 189.954L71.0303 138.123Z" fill="#FCBF49"/>
<path d="M116.177 82.9841L166.279 85.4654L165.728 133.436L151.964 146.945L133.52 148.048L106.267 124.338L116.177 82.9841Z" fill="#FFD88C"/>
<path d="M215.28 79.9514L236.201 104.764L225.465 142.534L174.537 131.782L175.088 83.5354L215.28 79.9514Z" fill="#F77F00"/>
<path d="M383.754 110.554L421.468 123.787L425.597 132.058L410.457 178.099L365.31 180.58L354.849 166.52L366.686 121.581L383.754 110.554Z" fill="#FCBF49"/>
<path d="M511.211 114.689L575.628 123.787L559.661 171.758L502.677 173.688L493.593 145.015L511.211 114.689Z" fill="#D62828"/>
<path d="M652.983 82.9841L669.224 108.899L648.303 159.076L595.173 121.857L652.983 82.9841Z" fill="#FFD88C"/>
<path d="M743.551 92.3577L775.209 100.077L784.569 145.567L754.287 161.557L730.613 149.151L722.905 117.997L743.551 92.3577Z" fill="#FCBF49"/>
<path d="M808.519 79.9514L836.598 94.8389L842.103 130.955L815.676 152.183L793.103 144.464L783.468 98.1472L808.519 79.9514Z" fill="#FFD88C"/>
<path d="M908.722 131.231L954.97 137.296L964.055 161.006L909.823 198.224L898.262 192.435L892.205 146.394L908.722 131.231Z" fill="#F77F00"/>
<path d="M980.296 98.1474L1002.32 95.1147L1048.29 139.777L1047.19 157.422L987.454 169.552L972.588 159.627L962.678 133.436L980.296 98.1474Z" fill="#FCBF49"/>
<path d="M1079.67 112.484L1123.17 109.175L1137.76 124.338L1133.35 167.347L1059.58 164.314L1055.72 159.627L1056.83 139.777L1079.67 112.484Z" fill="#FFD88C"/>
<path d="M1190.89 112.208L1204.93 119.927L1203.55 164.866L1143.82 173.688L1141.61 170.655L1146.29 126.268L1190.89 112.208Z" fill="#FFD88C"/>
<path d="M1253.65 81.0545L1286.41 71.9565L1313.12 102.559L1279.81 135.366L1243.47 105.867L1253.65 81.0545Z" fill="#F77F00"/>
<path d="M1331.01 107.521L1357.99 131.782L1331.84 185.818L1285.31 173.963L1284.49 143.086L1320.82 107.245L1331.01 107.521Z" fill="#D62828"/>
<path d="M1237.41 111.932L1275.68 143.361L1276.78 175.342L1252.83 194.365L1235.21 192.435L1212.09 167.071L1213.46 120.479L1237.41 111.932Z" fill="#FFD88C"/>
<path d="M1303.48 357.025L1305.41 378.529L1291.64 400.033L1255.58 409.406L1243.19 404.168L1227.78 360.057L1263.56 333.866L1303.48 357.025Z" fill="#FCBF49"/>
<path d="M1305.96 519.684L1314.22 593.295L1291.92 604.322L1248.7 559.384L1259.16 510.862L1259.71 510.586L1291.92 509.483L1305.96 519.684Z" fill="#D62828"/>
<path d="M1194.19 588.332L1168.59 569.309L1161.71 535.675L1233.56 506.175L1250.35 511.138L1240.17 558.006L1194.19 588.332Z" fill="#FFD88C"/>
<path d="M1070.59 566.277L1020.76 542.843L1028.2 507.829L1069.76 502.315L1087.11 530.988L1070.59 566.277Z" fill="#FCBF49"/>
<path d="M967.908 604.047L907.896 608.182L901.565 557.179L929.369 532.09L941.481 533.469L978.094 567.655L975.616 595.776L967.908 604.047Z" fill="#EAE2B7"/>
<path d="M819.805 643.471L761.445 614.523L761.17 599.084L782.917 574.823L826.137 583.37L837.148 618.383L819.805 643.471Z" fill="#FCBF49"/>
<path d="M726.484 646.779L682.163 633.27L675.556 604.322L698.405 564.622L752.636 599.911V615.626L726.484 646.779Z" fill="#FCBF49"/>
<path d="M641.145 666.629L600.678 620.864L612.24 592.743L667.297 607.355L673.904 635.476L641.145 666.629Z" fill="#EAE2B7"/>
<path d="M556.358 632.995L529.655 589.159L540.116 569.034L597.65 562.693L605.083 587.505L592.42 618.383L556.358 632.995Z" fill="#D62828"/>
<path d="M478.177 593.846L462.761 585.024L460.558 578.683L486.986 517.755L511.486 515.825L532.408 564.898L521.672 585.575L478.177 593.846Z" fill="#F77F00"/>
<path d="M409.631 624.724L366.136 583.645L399.721 548.356L452.3 581.44L453.952 586.402L409.631 624.724Z" fill="#FCBF49"/>
<path d="M321.54 630.238L317.135 630.513L280.522 604.598L277.769 578.131L319.888 557.73L357.327 584.472L321.54 630.238Z" fill="#F77F00"/>
<path d="M235.1 635.476L192.156 608.182L192.706 605.425L244.185 559.108L269.235 577.856L271.988 605.149L235.1 635.476Z" fill="#FFD88C"/>
<path d="M99.3847 607.079L53.4121 583.094L45.4288 550.011L51.7604 542.567L118.655 546.427L99.3847 607.079Z" fill="#EAE2B7"/>
<path d="M14.0463 258.326L12.9452 255.569L55.8896 197.122L56.7155 196.846L91.6767 215.869L77.0866 271.008L14.0463 258.326Z" fill="#FCBF49"/>
<path d="M134.621 156.595L151.138 155.492L176.74 213.112L158.571 228L103.789 210.907L134.621 156.595Z" fill="#D62828"/>
<path d="M171.509 139.777L225.74 151.357L228.769 157.422L190.504 209.804L184.723 210.079L159.121 152.184L171.509 139.777Z" fill="#F77F00"/>
<path d="M298.416 167.347L347.967 171.482L358.428 185.818L343.012 242.887L282.174 198.225L281.623 180.856L298.416 167.347Z" fill="#D62828"/>
<path d="M411.558 186.645L430.552 210.906L429.176 245.092L424.771 250.882L350.169 248.952L366.411 189.127L411.558 186.645Z" fill="#F77F00"/>
<path d="M560.212 180.304L569.296 197.397L542.043 253.363H519.745L517.542 251.158L502.677 182.51L560.212 180.304Z" fill="#F77F00"/>
<path d="M653.258 176.169L680.786 186.645L696.202 223.037L675.281 249.228L632.887 237.924L625.729 210.355L653.258 176.169Z" fill="#FFD88C"/>
<path d="M727.034 157.146L750.158 169.277L751.81 212.836L739.697 223.313L704.186 219.729L689.32 184.715L727.034 157.146Z" fill="#F77F00"/>
<path d="M789.799 152.459L812.648 160.454L823.384 205.668L802.187 219.453L760.344 211.182L758.692 169.001L789.799 152.459Z" fill="#FFD88C"/>
<path d="M894.407 200.154L907.07 206.495L920.284 231.859L905.143 274.592L866.604 267.975L855.592 217.799L894.407 200.154Z" fill="#EAE2B7"/>
<path d="M969.285 167.898L981.948 176.445L979.47 231.859L927.717 227.448L915.604 204.566L969.285 167.898Z" fill="#FCBF49"/>
<path d="M1206.03 173.412L1227.23 196.295L1188.96 234.892L1148.22 224.14L1146.57 181.959L1206.03 173.412Z" fill="#D62828"/>
<path d="M1254.48 286.998L1258.88 326.698L1222 353.44L1211.26 349.581L1193.37 304.091L1207.68 284.241L1254.48 286.998Z" fill="#F77F00"/>
<path d="M1250.9 416.85L1253.93 503.142L1235.49 497.904L1196.67 453.517L1199.15 435.046L1240.17 412.439L1250.9 416.85Z" fill="#EAE2B7"/>
<path d="M1146.84 474.194L1128.12 457.653L1134.18 419.607L1163.36 410.233L1190.61 433.943L1188.14 452.139L1146.84 474.194Z" fill="#FFD88C"/>
<path d="M1068.94 493.493L1026.27 499.283L1003.42 470.059L1014.43 452.139L1059.58 442.214L1078.3 467.854L1068.94 493.493Z" fill="#D62828"/>
<path d="M941.481 524.922L930.745 523.544L905.144 473.367L943.408 449.658L981.673 472.816L941.481 524.922Z" fill="#FCBF49"/>
<path d="M895.784 550.562L857.244 541.74L844.581 512.792L852.014 492.115L892.481 474.195L896.61 475.573L922.487 526.577L895.784 550.562Z" fill="#D62828"/>
<path d="M827.513 574.823L785.395 566.552L781.816 524.922L837.423 517.754L849.261 544.772L827.513 574.823Z" fill="#F77F00"/>
<path d="M756.214 591.64L705.011 558.557L735.293 521.062L773.282 526.301L776.861 568.758L756.214 591.64Z" fill="#FCBF49"/>
<path d="M668.949 598.808L613.066 584.197L605.358 558.281L607.561 552.768L664.82 539.259L690.697 561.038L668.949 598.808Z" fill="#FCBF49"/>
<path d="M539.841 560.487L519.194 512.24L538.189 490.736L589.667 506.727L599.853 548.632L597.65 553.87L539.841 560.487Z" fill="#FFD88C"/>
<path d="M453.952 572.342L403.299 540.361V530.161L452.3 495.423L478.727 514.997L453.952 572.342Z" fill="#FCBF49"/>
<path d="M361.181 576.477L324.568 550.286L324.292 504.521L348.517 490.46L361.456 492.115L394.765 529.333V541.188L361.181 576.477Z" fill="#F77F00"/>
<path d="M273.64 570.412L247.763 551.113L243.909 534.571L293.185 497.628L315.759 505.072L316.034 550.01L273.64 570.412Z" fill="#FCBF49"/>
<path d="M185.273 406.374L199.038 400.584L245.836 437.527L204.268 489.634L166.279 455.723L185.273 406.374Z" fill="#D62828"/>
<path d="M183.622 218.901L191.33 218.626L236.752 250.606L225.465 277.9L164.077 298.026L162.15 297.199L163.801 235.167L183.622 218.901Z" fill="#FFD88C"/>
<path d="M278.87 206.771L341.635 252.536V252.812L334.753 267.975L310.253 275.695L249.14 247.298L278.87 206.771Z" fill="#F77F00"/>
<path d="M543.144 261.91L570.672 283.414L560.762 342.412L558.285 344.894L520.02 348.753L492.216 328.076L520.846 262.185L543.144 261.91Z" fill="#F77F00"/>
<path d="M630.96 246.471L673.354 257.774L684.64 301.61L648.578 316.773L609.763 275.419L630.96 246.471Z" fill="#FFD88C"/>
<path d="M703.084 228.275L737.495 231.859L745.754 284.793L694.275 301.334L693.449 301.058L681.612 255.293L703.084 228.275Z" fill="#FCBF49"/>
<path d="M757.591 219.453L798.608 227.448L796.681 280.933L768.602 291.685L754.287 284.793L745.754 229.378L757.591 219.453Z" fill="#EAE2B7"/>
<path d="M864.401 276.246L905.144 283.414L906.795 286.171L899.087 329.179L858.62 344.894L847.884 338.277L838.8 298.026L864.401 276.246Z" fill="#EAE2B7"/>
<path d="M927.992 236.27L981.398 240.681L988.555 249.779L965.982 291.961L913.953 281.484L912.576 279.003L927.992 236.27Z" fill="#D62828"/>
<path d="M1059.03 217.247L1089.86 246.747L1061.51 296.372L1052.42 294.993L1016.36 251.709L1059.03 217.247Z" fill="#EAE2B7"/>
<path d="M1124.27 248.125L1139.41 305.469L1122.89 326.147L1079.67 314.567L1068.94 300.783L1097.84 250.055L1124.27 248.125Z" fill="#FCBF49"/>
<path d="M1185.66 307.951L1202.45 350.959L1171.34 367.225L1130.05 334.969L1129.23 332.212L1146.29 310.708L1185.66 307.951Z" fill="#D62828"/>
<path d="M1131.43 411.336L1109.4 393.416L1128.12 344.618L1166.11 374.117L1160.61 401.963L1131.43 411.336Z" fill="#FCBF49"/>
<path d="M1057.93 433.668L1014.98 443.041L1003.42 396.725L1016.91 380.183L1051.6 383.767L1066.46 400.309L1057.93 433.668Z" fill="#EAE2B7"/>
<path d="M836.873 509.208L783.192 515.824L786.496 449.933L800.811 441.938L843.755 489.909L836.873 509.208Z" fill="#F77F00"/>
<path d="M696.753 554.973L670.326 532.366L670.876 476.951L673.629 475.573L714.096 483.844L728.411 515.824L696.753 554.973Z" fill="#EAE2B7"/>
<path d="M607.561 543.945L598.201 504.245L626.83 471.162L662.342 478.054L661.516 530.988L607.561 543.945Z" fill="#F77F00"/>
<path d="M399.72 521.89L369.439 488.255L403.024 452.69L443.491 465.372L447.62 487.979L399.72 521.89Z" fill="#FFD88C"/>
<path d="M319.613 497.353L295.387 489.082L268.96 437.527L278.87 428.705L329.798 430.635L342.736 483.844L319.613 497.353Z" fill="#F77F00"/>
<path d="M262.353 334.142L233.448 281.208L244.46 254.466L303.371 282.036L266.207 334.969L262.353 334.142Z" fill="#FCBF49"/>
<path d="M312.455 284.241L335.579 276.797L356.501 325.595L332.826 355.37L288.23 354.543L273.64 339.104L312.455 284.241Z" fill="#D62828"/>
<path d="M434.131 304.091L482.031 330.282L437.159 378.529L419.266 376.323L400.271 334.417L434.131 304.091Z" fill="#FCBF49"/>
<path d="M392.013 337.175L411.007 379.632L387.883 404.444L355.4 400.86L339.708 360.333L363.108 331.109L392.013 337.175Z" fill="#FCBF49"/>
<path d="M290.157 363.365L332 363.917L347.416 403.893L331.45 422.088L282.174 420.159L290.157 363.365Z" fill="#EAE2B7"/>
<path d="M351.27 482.19L338.057 427.602L354.023 409.406L386.231 413.266L396.968 446.625L362.006 483.568L351.27 482.19Z" fill="#F77F00"/>
<path d="M445.418 457.102L405.226 444.144L394.215 410.234L417.889 384.87L436.609 387.075L466.615 427.327L445.418 457.102Z" fill="#FCBF49"/>
<path d="M473.772 422.364L444.592 383.491L488.638 336.072L513.964 355.095L501.025 418.78L473.772 422.364Z" fill="#FFD88C"/>
<path d="M522.498 357.3L557.183 353.716L578.105 414.644L534.059 439.457L509.284 420.71L522.498 357.3Z" fill="#FCBF49"/>
<path d="M650.505 325.32L689.871 309.054L690.421 309.329L715.472 376.323L709.141 387.075L689.045 394.795L648.578 381.286L638.943 349.305L650.505 325.32Z" fill="#D62828"/>
<path d="M750.158 292.512L764.198 299.404L767.776 357.3L722.905 371.361L699.506 308.778L750.158 292.512Z" fill="#F77F00"/>
<path d="M843.755 345.997L854.491 352.338L864.952 401.963L808.794 421.537L792.827 370.809L843.755 345.997Z" fill="#D62828"/>
<path d="M914.779 290.306L965.156 300.783L972.864 322.563L935.7 354.268L907.621 330.558L914.779 290.306Z" fill="#FCBF49"/>
<path d="M902.115 337.45L931.571 362.263L932.947 386.248L873.21 400.308L863.3 352.338L902.115 337.45Z" fill="#D62828"/>
<path d="M784.018 371.636L801.361 426.775L798.333 433.392L781.541 443.041L752.911 440.56L717.124 390.383L723.18 380.458L771.906 365.02L784.018 371.636Z" fill="#EAE2B7"/>
<path d="M715.472 475.297L678.309 467.578L692.899 402.79L710.517 395.897L744.928 444.144L715.472 475.297Z" fill="#F77F00"/>
<path d="M628.207 462.615L610.864 423.467L646.1 389.556L684.09 402.238L669.224 468.129L665.921 469.783L628.207 462.615Z" fill="#FCBF49"/>
<path d="M631.235 353.165L640.319 383.491L604.532 417.677L586.639 412.99L565.167 350.408L566.543 349.029L631.235 353.165Z" fill="#EAE2B7"/>
<path d="M540.942 482.465L538.189 447.177L583.886 421.261L602.605 426.224L619.948 465.648L591.869 498.18L540.942 482.465Z" fill="#D62828"/>
<path d="M736.394 512.516L722.079 480.811L752.36 449.106L777.962 451.312L774.659 517.754L736.394 512.516Z" fill="#FCBF49"/>
<path d="M849.811 483.568L806.867 435.597L809.069 430.635L867.705 410.233L886.975 467.026L849.811 483.568Z" fill="#D62828"/>
<path d="M899.087 467.027L895.784 465.924L876.239 408.579L935.975 394.519L940.105 399.206L939.004 441.938L899.087 467.027Z" fill="#FFD88C"/>
<path d="M946.436 393.14L941.481 387.902L940.105 361.987L978.645 328.904L997.639 337.726L1010.3 374.669L996.538 391.21L946.436 393.14Z" fill="#FCBF49"/>
<path d="M1051.32 303.54L1061.23 305.194L1072.24 319.254L1050.77 374.945L1018.29 371.636L1006.17 336.347L1051.32 303.54Z" fill="#FCBF49"/>
<path d="M1073.07 394.519L1058.48 378.804L1079.95 323.666L1120.97 334.693L1121.79 337.175L1101.15 390.659L1073.07 394.519Z" fill="#FCBF49"/>
<path d="M1008.1 255.018L1043.89 298.302L1000.67 329.731L981.397 320.633L973.139 297.475L996.263 253.915L1008.1 255.018Z" fill="#D62828"/>
<path d="M830.266 299.68L839.075 338.553L787.597 363.641L776.31 357.576L772.731 299.404L800.811 288.652L830.266 299.68Z" fill="#FFD88C"/>
<path d="M602.605 280.382L642.246 322.839L631.786 344.343L569.847 340.483L578.931 285.344L602.605 280.382Z" fill="#FCBF49"/>
<path d="M511.761 257.774L512.863 258.877L485.334 322.287L437.434 296.096L431.378 256.396L435.232 251.158L511.761 257.774Z" fill="#EAE2B7"/>
<path d="M423.12 259.704L428.901 297.199L393.664 328.628L364.484 322.563L342.461 271.559L349.068 257.774L423.12 259.704Z" fill="#F77F00"/>
<path d="M226.566 286.722L253.82 336.347L211.976 358.954L171.234 304.643L226.566 286.722Z" fill="#FCBF49"/>
<path d="M214.454 367.501L260.426 342.688L265.932 343.516L281.899 360.333L273.365 422.089L262.078 432.289H253.544L204.819 394.243L214.454 367.501Z" fill="#FCBF49"/>
<path d="M210.049 503.418L209.223 497.077L254.095 441.111L261.252 440.835L286.854 491.563L239.229 527.404L210.049 503.418Z" fill="#FCBF49"/>
<path d="M485.334 508.932L456.154 487.428L451.749 463.167L474.323 431.186L503.228 427.051L529.655 446.901L532.408 484.12L512.037 507.278L485.334 508.932Z" fill="#FCBF49"/>
<path d="M989.106 467.026L947.813 441.938L948.639 401.687L995.437 400.033L1007 447.452L995.437 466.199L989.106 467.026Z" fill="#F77F00"/>
<path d="M1085.18 462.34L1065.91 436.424L1074.72 403.065L1102.8 399.206L1125.92 417.953L1119.59 455.723L1085.18 462.34Z" fill="#D62828"/>
<path d="M1195.57 427.051L1169.14 403.617L1174.65 375.22L1208.23 357.852L1219.24 361.711L1234.66 405.547L1195.57 427.051Z" fill="#FCBF49"/>
<path d="M1186.21 299.129L1147.39 301.886L1132.25 244.817L1145.19 232.411L1187.04 243.438L1200.8 279.279L1186.21 299.129Z" fill="#F77F00"/>
<path d="M1135.01 176.169L1137.76 179.753L1139.69 225.794L1125.65 239.303L1096.74 241.508L1063.43 209.528L1061.78 173.136L1135.01 176.169Z" fill="#FFD88C"/>
<path d="M1049.67 165.693L1053.25 170.104L1054.9 209.528L1008.93 246.471L995.987 245.093L987.729 235.168L990.757 177.823L1049.67 165.693Z" fill="#FFD88C"/>
<path d="M847.058 218.626L858.345 269.905L833.019 291.685L805.215 281.208L807.142 226.345L828.89 212.561L847.058 218.626Z" fill="#FCBF49"/>
<path d="M617.471 212.836L624.628 240.681L601.504 271.835L576.178 277.073L550.026 256.396L576.453 202.36L617.471 212.836Z" fill="#F77F00"/>
<path d="M494.969 187.748L508.183 248.677L437.71 242.611L439.086 212.285L494.969 187.748Z" fill="#FCBF49"/>
<path d="M273.09 181.407L273.64 199.327L241.432 243.438L198.763 213.112L235.1 163.487L273.09 181.407Z" fill="#D62828"/>
<path d="M91.9519 288.652L84.7945 275.419L99.9352 218.902L154.992 235.995L153.34 297.75L142.329 302.988L91.9519 288.652Z" fill="#D62828"/>
<path d="M146.183 310.432L158.02 305.194L161.599 306.297L205.92 365.295L196.285 392.314L182.245 398.103L131.318 374.118L146.183 310.432Z" fill="#FCBF49"/>
<path d="M126.363 381.286L176.74 405.271L158.02 453.242L130.492 460.41L96.0812 411.336L96.6318 395.346L126.363 381.286Z" fill="#FCBF49"/>
<path d="M91.1261 419.332L123.61 465.648L115.076 480.536L56.9908 483.293L44.0524 465.373L91.1261 419.332Z" fill="#FCBF49"/>
<path d="M58.9177 492.115L114.25 489.358L123.61 537.604L123.059 538.156L54.7885 534.02L58.9177 492.115Z" fill="#FCBF49"/>
<path d="M131.868 535.674L122.233 485.498L131.593 469.232L159.947 461.788L200.689 497.904L201.515 503.694L154.717 539.534L131.868 535.674Z" fill="#D62828"/>
<path d="M205.92 511.138L235.1 535.123L238.954 552.216L189.678 596.603L161.324 545.048L205.92 511.138Z" fill="#D62828"/>
<path d="M844.856 614.523L834.12 580.337L856.143 550.286L893.031 558.833L899.638 611.215L899.087 612.042L844.856 614.523Z" fill="#FFD88C"/>
<path d="M983.049 560.487L949.189 529.058L990.482 475.573L996.263 475.022L1019.94 505.072L1011.95 542.567L983.049 560.487Z" fill="#FCBF49"/>
<path d="M1094.26 526.025L1076.92 497.077L1086.56 470.886L1122.07 463.994L1142.16 481.638L1143.54 520.511L1094.26 526.025Z" fill="#FFD88C"/>
<path d="M1152.35 522.441L1150.7 482.19L1191.16 460.41L1225.85 500.11L1157.86 527.955L1152.35 522.441Z" fill="#FFD88C"/>
<path d="M1290.54 500.937L1262.46 501.764L1259.44 417.401L1292.19 408.855L1315.32 452.415L1290.54 500.937Z" fill="#FCBF49"/>
<path d="M1256.41 278.452L1208.78 275.695L1195.29 240.681L1234.93 200.981L1250.63 202.911L1268.8 264.391L1256.41 278.452Z" fill="#FFD88C"/>
<path d="M883.671 148.048L889.728 192.711L850.362 210.631L831.918 204.29L821.182 158.8L847.884 137.572L883.671 148.048Z" fill="#F77F00"/>
<path d="M714.646 120.479L721.804 150.254L683.264 178.374L655.46 167.622L654.91 165.968L676.657 113.311L714.646 120.479Z" fill="#D62828"/>
<path d="M586.088 125.993L646.651 168.45L647.202 170.104L619.398 204.29L577.004 193.538L567.369 175.618L584.161 125.993H586.088Z" fill="#EAE2B7"/>
<path d="M485.609 148.324L494.969 177.823L494.694 178.099L436.058 204.29L418.44 181.407L433.305 136.745L485.609 148.324Z" fill="#FFD88C"/>
<path d="M347.141 162.66L301.444 158.8L301.168 95.9419L357.877 121.306L347.141 162.66Z" fill="#D62828"/>
<path d="M292.635 98.1475L292.91 160.73L276.668 173.688L236.752 154.665L233.173 146.945L244.46 107.521L292.635 98.1475Z" fill="#FFD88C"/>
<path d="M14.0463 267.148L77.3619 279.83L83.9687 291.961L55.0638 335.245L-1.09436 318.979L14.0463 267.148Z" fill="#FCBF49"/>
<path d="M90.8508 297.199L137.374 310.432L122.784 373.29L92.7778 387.626L72.4067 373.566L61.6706 340.758L90.8508 297.199Z" fill="#EAE2B7"/>
<path d="M68.2774 381.286L88.0979 394.795L87.5473 410.785L37.4455 459.859L31.9398 458.204L3.58545 411.061L68.2774 381.286Z" fill="#FFD88C"/>
<path d="M29.7376 466.475L35.7938 468.405L50.3839 489.082L45.7041 536.502L39.0973 544.221L-4.94832 539.259L-15.9597 499.559L29.7376 466.475Z" fill="#FFD88C"/>
<path d="M107.368 615.35L106.267 613.145L128.29 545.048L129.391 543.945L153.065 548.081L184.172 604.047L183.622 607.907L170.133 618.383L107.368 615.35Z" fill="#FCBF49"/>
<path d="M175.914 625L187.751 615.626L231.521 643.471L237.853 681.793L172.61 693.096L175.914 625Z" fill="#FFD88C"/>
<path d="M248.039 684.274L246.662 683.171L240.055 642.368L276.668 612.593L309.978 636.303L280.797 681.241L248.039 684.274Z" fill="#EAE2B7"/>
<path d="M360.63 668.008L329.523 634.097L362.282 592.192L405.226 632.443L404.951 644.298L385.13 667.181L360.63 668.008Z" fill="#FCBF49"/>
<path d="M471.57 674.073L413.76 643.471V632.443L459.457 593.295L473.222 601.29L481.48 670.214L471.57 674.073Z" fill="#EAE2B7"/>
<path d="M490.014 669.386L482.031 602.117L522.498 594.122L550.026 638.784L547.549 644.574L493.868 670.489L490.014 669.386Z" fill="#FCBF49"/>
<path d="M909.548 664.148L905.694 617.831L906.52 616.729L965.706 613.145L969.01 682.068L909.548 664.148Z" fill="#FFD88C"/>
<path d="M1049.39 621.967L984.426 594.949L986.628 568.482L1016.08 550.01L1068.94 575.374L1076.92 607.906L1049.39 621.967Z" fill="#D62828"/>
<path d="M1085.46 607.079L1077.2 572.618L1094.81 534.572L1146.57 528.782L1152.9 535.123L1159.78 569.585L1090.96 609.561L1085.46 607.079Z" fill="#FCBF49"/>
<path d="M1258.06 644.298L1201.63 616.453L1198.6 595.5L1243.19 566.277L1285.86 610.663L1272.92 639.611L1258.06 644.298Z" fill="#F77F00"/>
<path d="M1294.12 612.869L1319.45 600.463L1350.83 606.252L1354.68 658.083L1314.22 678.484L1281.18 642.368L1294.12 612.869Z" fill="#F77F00"/>
<path d="M1359.91 594.673L1354.13 598.257L1322.75 592.192L1314.77 521.614L1350.83 522.717L1374.5 556.076L1359.91 594.673Z" fill="#F77F00"/>
<path d="M1351.11 514.17L1311.46 512.792L1298.8 503.694L1323.03 456.274L1377.53 450.485L1388.82 467.027L1351.11 514.17Z" fill="#FCBF49"/>
<path d="M1375.33 441.938L1322.75 447.728L1299.35 403.892L1311.74 384.594L1377.53 403.892L1375.33 441.938Z" fill="#D62828"/>
<path d="M1306.78 349.029L1267.42 326.147L1262.74 284.517L1275.68 269.905L1318.35 271.008L1338.99 314.292L1306.78 349.029Z" fill="#FCBF49"/>
<path d="M1318.9 262.461L1276.78 261.083L1258.88 200.43L1282.01 182.234L1331.28 194.64L1348.35 221.383L1318.9 262.461Z" fill="#FCBF49"/>
<path d="M1392.67 124.063L1364.59 126.268L1338.17 102.283L1362.39 51.8308L1397.63 56.5176L1392.67 124.063Z" fill="#F77F00"/>
<path d="M1178.5 60.653L1186.48 104.488L1143.54 117.997L1129.5 103.386L1136.93 55.4148L1178.5 60.653Z" fill="#FFD88C"/>
<path d="M1119.59 44.1112L1123.72 45.4897L1128.95 51.8306L1121.24 100.629L1081.05 103.661L1072.52 59.5501L1119.59 44.1112Z" fill="#EAE2B7"/>
<path d="M937.627 55.4148L942.032 56.7933L972.588 94.8391L955.521 128.474L911.2 122.684L904.593 71.4051L937.627 55.4148Z" fill="#F77F00"/>
<path d="M896.059 72.2322L902.941 124.89L886.699 139.777L850.637 129.301L845.131 94.2878L884.497 68.6482L896.059 72.2322Z" fill="#F77F00"/>
<path d="M493.868 75.5403L504.329 109.451L486.711 139.777L433.305 127.922L429.451 120.478L454.778 74.4375L493.868 75.5403Z" fill="#FFD88C"/>
<path d="M86.7215 55.6904L90.8508 56.2418L108.194 79.4001L97.7329 122.408L68.2774 130.128L46.2546 112.759L53.1368 71.1293L86.7215 55.6904Z" fill="#FCBF49"/>
<path d="M-3.29669 132.058L40.7489 119.376L62.7717 136.469L53.6873 188.575L-7.15067 162.109L-12.6564 152.735L-3.29669 132.058Z" fill="#F77F00"/>
<path d="M-3.29661 327.25L53.6874 343.791L63.3224 373.842L-2.47075 404.444L-6.87531 402.514L-15.9597 385.697L-3.29661 327.25Z" fill="#D62828"/>
<path d="M-9.07758 411.061L-5.49887 412.439L23.4061 460.41L-21.4654 492.666L-42.9376 482.465L-53.1232 454.62L-9.07758 411.061Z" fill="#F77F00"/>
<path d="M-27.2464 615.35L2.20904 635.476L12.1193 668.008L-4.67308 680.69L-54.7749 681.517L-66.6122 632.168L-27.2464 615.35Z" fill="#FCBF49"/>
<path d="M130.767 707.432L102.963 636.854L107.368 623.896L167.105 626.929L163.801 696.404L154.992 706.053L130.767 707.432Z" fill="#FCBF49"/>
<path d="M331.174 725.077V724.25L361.181 676.554L384.305 675.727L400.822 717.909L383.479 740.516L331.174 725.077Z" fill="#FFD88C"/>
<path d="M758.142 753.197L756.214 702.194L802.187 698.61L812.373 754.576L811.271 755.954L758.142 753.197Z" fill="#F77F00"/>
<path d="M890.553 735.277L883.121 696.129L906.52 672.419L965.706 690.063L946.987 735.277H890.553Z" fill="#F77F00"/>
<path d="M1047.74 713.773L1028.47 690.615L1052.7 629.686L1082.15 615.074L1088.48 617.831L1114.36 658.359L1084.63 720.941L1047.74 713.773Z" fill="#FCBF49"/>
<path d="M1121.79 662.77L1163.91 667.732L1183.73 706.329L1158.41 739.688L1093.16 723.147L1121.79 662.77Z" fill="#FCBF49"/>
<path d="M1245.67 725.904L1232.18 710.465L1260.81 652.569L1274.58 648.158L1308.71 685.652L1308.16 698.61L1274.58 729.763L1245.67 725.904Z" fill="#EAE2B7"/>
<path d="M1403.96 712.946L1399.28 710.189L1391.02 677.933L1436.17 639.06L1452.13 696.404L1403.96 712.946Z" fill="#FFD88C"/>
<path d="M1429.84 614.523L1369 594.949L1382.49 559.109L1434.24 545.048L1429.84 614.523Z" fill="#FCBF49"/>
<path d="M1381.11 550.286L1358.26 518.581L1395.7 472.265L1408.36 476.676L1433.97 536.226L1381.11 550.286Z" fill="#D62828"/>
<path d="M1411.12 468.405L1397.08 463.443L1383.86 444.695L1386.34 402.514L1404.79 381.561L1495.63 403.341V422.364L1411.12 468.405Z" fill="#FCBF49"/>
<path d="M1380.56 395.622L1313.94 376.323L1312.01 355.922L1345.87 319.806L1389.09 326.147L1398.73 375.22L1380.56 395.622Z" fill="#FCBF49"/>
<path d="M1391.3 317.6L1346.98 310.983L1326.05 267.148L1355.51 226.345L1357.99 226.621L1413.87 283.69L1414.7 291.409L1391.3 317.6Z" fill="#EAE2B7"/>
<path d="M1416.9 274.316L1367.07 223.313L1417.72 193.538L1449.11 216.696L1416.9 274.316Z" fill="#F77F00"/>
<path d="M1455.99 210.906L1422.13 186.094L1419.1 141.707L1447.73 131.231L1495.63 146.945V206.495L1455.99 210.906Z" fill="#FCBF49"/>
<path d="M1443.88 123.511L1414.97 133.988L1401.21 125.717L1406.16 55.139L1416.35 49.0737L1452.13 64.7883L1443.88 123.511Z" fill="#EAE2B7"/>
<path d="M1412.22 41.63L1401.21 48.2467L1362.39 43.0085L1346.7 22.8828L1349.45 -14.8873H1418.27L1412.22 41.63Z" fill="#FCBF49"/>
<path d="M1338.17 21.2286L1296.87 35.0134L1268.52 0.275866L1268.79 -14.8873H1340.92L1338.17 21.2286Z" fill="#FCBF49"/>
<path d="M1259.99 0.000170708L1225.02 36.3918L1204.38 33.6349L1190.06 -14.8873H1260.26L1259.99 0.000170708Z" fill="#EAE2B7"/>
<path d="M1196.12 36.3918L1180.7 52.1064L1135.56 46.5925L1131.43 41.3543L1163.64 -14.8873H1180.98L1196.12 36.3918Z" fill="#FCBF49"/>
<path d="M1124.27 36.3918L1122.62 35.8404L1093.16 -14.8873H1153.73L1124.27 36.3918Z" fill="#FCBF49"/>
<path d="M1113.26 37.2189L1068.39 51.8307L1050.77 41.0786L1069.21 -14.8873H1083.25L1113.26 37.2189Z" fill="#F77F00"/>
<path d="M1042.24 39.4245L1032.33 41.3543L998.19 12.9578L995.988 -14.8873H1060.4L1042.24 39.4245Z" fill="#FFD88C"/>
<path d="M989.656 13.2335L943.684 47.971L940.655 47.1439L925.515 -14.8873H987.454L989.656 13.2335Z" fill="#F77F00"/>
<path d="M932.121 48.2467L899.638 64.237L886.699 60.1015L862.75 15.1634L869.356 -14.8873H916.706L932.121 48.2467Z" fill="#FCBF49"/>
<path d="M854.216 12.9578L807.142 37.7703L784.018 17.0932L782.366 -14.8873H860.547L854.216 12.9578Z" fill="#D62828"/>
<path d="M775.484 17.0932L730.062 46.0412L723.18 41.9057L705.286 -14.8873H773.832L775.484 17.0932Z" fill="#FCBF49"/>
<path d="M714.096 42.1814L656.561 63.6856L649.129 51.0036L680.786 -14.8873H696.202L714.096 42.1814Z" fill="#F77F00"/>
<path d="M642.246 45.4898L615.819 32.8078L611.69 -14.8873H671.427L642.246 45.4898Z" fill="#EAE2B7"/>
<path d="M607.285 32.8078L571.223 48.7981L556.082 39.9759L553.88 -14.8873H603.156L607.285 32.8078Z" fill="#FFD88C"/>
<path d="M547.548 39.4245L509.559 51.0036L485.059 -14.8873H545.346L547.548 39.4245Z" fill="#EAE2B7"/>
<path d="M502.127 55.6905L494.694 66.9939L454.502 65.6154L437.159 41.63L473.497 -14.8873H475.974L502.127 55.6905Z" fill="#F77F00"/>
<path d="M429.727 37.2189L412.384 35.0134L389.26 -14.8873H463.036L429.727 37.2189Z" fill="#FCBF49"/>
<path d="M404.125 37.7703L378.248 58.9988L345.765 43.0085L354.298 -14.8873H379.9L404.125 37.7703Z" fill="#D62828"/>
<path d="M337.231 42.4571L304.197 59.5502L279.146 28.9481L286.854 -14.8873H345.765L337.231 42.4571Z" fill="#D62828"/>
<path d="M270.612 26.4668L234.55 35.2891L200.139 -7.44358L200.689 -14.8873H278.045L270.612 26.4668Z" fill="#F77F00"/>
<path d="M191.605 -7.99497L165.178 22.3314L124.436 14.3363L121.683 -14.8873H192.156L191.605 -7.99497Z" fill="#FCBF49"/>
<path d="M116.177 16.5418L91.4014 47.4196L88.9238 47.1439L54.5132 -14.8873H112.874L116.177 16.5418Z" fill="#F77F00"/>
<path d="M80.1147 49.3495L49.5581 63.1342L11.5687 42.1814L2.20905 -14.8873H44.6029L80.1147 49.3495Z" fill="#FCBF49"/>
<path d="M3.03491 43.5599L-27.2464 77.1946L-67.9886 67.2696L-30.5498 -14.8873H-6.32477L3.03491 43.5599Z" fill="#D62828"/>
<path d="M-0.543798 765.052L37.4455 761.193L53.412 779.94L50.9345 811.093H-7.15063L-0.543798 765.052Z" fill="#EAE2B7"/>
<path d="M61.9458 781.87L106.542 768.085L130.216 811.093H59.4683L61.9458 781.87Z" fill="#D62828"/>
<path d="M113.149 762.295L124.711 720.114L129.666 716.254L154.717 714.6L183.622 760.366L169.858 811.093H140.127L113.149 762.295Z" fill="#D62828"/>
<path d="M191.605 763.398L244.46 754.3L253.269 763.122V811.093H178.667L191.605 763.398Z" fill="#F77F00"/>
<path d="M261.803 765.052L311.905 755.127L329.248 811.093H261.803V765.052Z" fill="#D62828"/>
<path d="M319.337 750.44L329.523 733.623L381.552 749.062L384.029 760.09L344.663 811.093H338.332L319.337 750.44Z" fill="#FCBF49"/>
<path d="M389.535 766.982L421.193 789.589L423.12 811.093H355.675L389.535 766.982Z" fill="#FCBF49"/>
<path d="M429.727 789.038L463.036 757.333L495.795 770.566L497.722 811.093H431.654L429.727 789.038Z" fill="#F77F00"/>
<path d="M504.329 769.463L525.25 751.543L581.684 786.281L581.408 811.093H506.256L504.329 769.463Z" fill="#D62828"/>
<path d="M590.218 785.178L606.184 763.398L655.46 761.193L662.067 811.093H589.942L590.218 785.178Z" fill="#F77F00"/>
<path d="M663.719 757.884L677.483 739.688L732.54 776.907L730.062 811.093H670.601L663.719 757.884Z" fill="#D62828"/>
<path d="M741.349 776.631L755.664 761.744L808.519 764.501L805.766 811.093H738.871L741.349 776.631Z" fill="#FFD88C"/>
<path d="M817.328 762.02L818.979 760.09L874.036 758.16L884.497 811.093H814.299L817.328 762.02Z" fill="#D62828"/>
<path d="M882.02 754.576L889.177 744.1H947.262L982.774 811.093H893.031L882.02 754.576Z" fill="#FCBF49"/>
<path d="M1047.47 722.595L1082.98 729.488L1083.25 811.093H992.134L1047.47 722.595Z" fill="#FCBF49"/>
<path d="M1091.51 731.693L1156.48 748.235L1158.13 755.679L1130.33 811.093H1091.79L1091.51 731.693Z" fill="#FCBF49"/>
<path d="M1164.19 762.571L1217.32 800.892L1220.34 811.093H1139.96L1164.19 762.571Z" fill="#F77F00"/>
<path d="M1225.58 798.136L1246.5 734.726L1273.2 738.31L1292.74 775.529L1282.01 811.093H1229.15L1225.58 798.136Z" fill="#FCBF49"/>
<path d="M1301 778.561L1344.22 766.707L1376.16 810.818V811.093H1290.82L1301 778.561Z" fill="#FFD88C"/>
<path d="M1384.69 810.818L1418.55 763.674L1446.9 770.015L1469.2 811.093H1384.69V810.818Z" fill="#EAE2B7"/>
<path d="M1495.63 617.28L1441.4 624.172L1438.1 619.21L1442.77 542.567L1495.63 539.259V617.28Z" fill="#FCBF49"/>
<path d="M1495.63 530.436L1442.22 533.745L1417.17 475.297L1495.63 432.289V530.436Z" fill="#FFD88C"/>
<path d="M1406.99 373.015L1397.35 323.665L1420.75 297.75L1495.63 318.427V394.243L1406.99 373.015Z" fill="#FFD88C"/>
<path d="M1495.63 46.5925L1457.09 57.6203L1420.75 41.63L1426.81 -14.8873H1495.63V46.5925Z" fill="#EAE2B7"/>
</g>
</g>
<defs>
<clipPath id="clip0_4_2306">
<rect width="1546" height="794" fill="white" transform="translate(-79)"/>
</clipPath>
</defs>
</svg>
